<?xml version="1.0" encoding="UTF-8" standalone="no"?>
<!-- Created with Inkscape (http://www.inkscape.org/) -->

<svg
   xmlns:dc="http://purl.org/dc/elements/1.1/"
   xmlns:cc="http://creativecommons.org/ns#"
   xmlns:rdf="http://www.w3.org/1999/02/22-rdf-syntax-ns#"
   xmlns:svg="http://www.w3.org/2000/svg"
   xmlns="http://www.w3.org/2000/svg"
   xmlns:sodipodi="http://sodipodi.sourceforge.net/DTD/sodipodi-0.dtd"
   xmlns:inkscape="http://www.inkscape.org/namespaces/inkscape"
   id="svg3032"
   version="1.1"
   inkscape:version="0.48.5 r10040"
   width="552.375"
   height="650.875"
   xml:space="preserve"
   sodipodi:docname="OKWG_Graphic_science_rgb.eps"><metadata
     id="metadata3038"><rdf:RDF><cc:Work
         rdf:about=""><dc:format>image/svg+xml</dc:format><dc:type
           rdf:resource="http://purl.org/dc/dcmitype/StillImage" /><dc:title></dc:title></cc:Work></rdf:RDF></metadata><defs
     id="defs3036" /><sodipodi:namedview
     pagecolor="#ffffff"
     bordercolor="#666666"
     borderopacity="1"
     objecttolerance="10"
     gridtolerance="10"
     guidetolerance="10"
     inkscape:pageopacity="0"
     inkscape:pageshadow="2"
     inkscape:window-width="1362"
     inkscape:window-height="729"
     id="namedview3034"
     showgrid="false"
     inkscape:zoom="0.81582485"
     inkscape:cx="276.1875"
     inkscape:cy="325.4375"
     inkscape:window-x="0"
     inkscape:window-y="18"
     inkscape:window-maximized="0"
     inkscape:current-layer="g3040" /><g
     id="g3040"
     inkscape:groupmode="layer"
     inkscape:label="ink_ext_XXXXXX"
     transform="matrix(1.25,0,0,-1.25,0,650.875)"><g
       id="g3042"
       transform="scale(0.1,0.1)"><path
         d="m 3786.91,2841.23 c -291.98,0 -537.74,-199.45 -609.82,-469.11 l -504.38,85.43 c 1.02,18.36 1.63,36.82 1.63,55.42 0,547.91 -445.46,993.7 -993.26,993.7 -8.44,0 -16.78,-0.42 -25.17,-0.64 l -61.76,471.33 c 249.15,84.69 429.17,320.41 429.17,597.82 0,348.42 -283.41,631.85 -631.72,631.85 -348.43,0 -631.858,-283.43 -631.858,-631.85 0,-348.31 283.428,-631.74 631.858,-631.74 0.5,0 0.99,0.08 1.5,0.08 l 60.72,-463.38 c -438.7,-103.09 -766.336,-497.46 -766.336,-967.17 0,-339.56 171.332,-639.75 432.016,-819.02 L 848.574,1224.51 c -67.711,24.83 -140.488,39.08 -216.722,39.08 C 283.43,1263.59 0,980.172 0,631.852 0,283.43 283.43,0 631.852,0 980.387,0 1263.7,283.43 1263.7,631.852 c 0,199.218 -92.91,376.918 -237.46,492.788 l 272.08,471.6 c 117.87,-49.39 247.17,-76.76 382.76,-76.76 459.05,0 846.07,313.04 959.47,736.81 l 516.57,-87.5 c 21.11,-329.38 295.18,-591.14 629.79,-591.14 348.63,0 632.06,283.43 632.06,631.74 0,348.41 -283.43,631.84 -632.06,631.84"
         style="fill:#000000;fill-opacity:1;fill-rule:nonzero;stroke:none"
         id="path3044" /></g></g></svg>