<?xml version="1.0" encoding="UTF-8" standalone="no"?>
<!-- Created with Inkscape (http://www.inkscape.org/) -->

<svg
   xmlns:dc="http://purl.org/dc/elements/1.1/"
   xmlns:cc="http://creativecommons.org/ns#"
   xmlns:rdf="http://www.w3.org/1999/02/22-rdf-syntax-ns#"
   xmlns:svg="http://www.w3.org/2000/svg"
   xmlns="http://www.w3.org/2000/svg"
   xmlns:sodipodi="http://sodipodi.sourceforge.net/DTD/sodipodi-0.dtd"
   xmlns:inkscape="http://www.inkscape.org/namespaces/inkscape"
   id="svg4106"
   version="1.1"
   inkscape:version="0.48.5 r10040"
   width="500"
   height="500"
   xml:space="preserve"
   sodipodi:docname="icon-black.svg"><metadata
     id="metadata4112"><rdf:RDF><cc:Work
         rdf:about=""><dc:format>image/svg+xml</dc:format><dc:type
           rdf:resource="http://purl.org/dc/dcmitype/StillImage" /><dc:title></dc:title></cc:Work></rdf:RDF></metadata><defs
     id="defs4110" /><sodipodi:namedview
     pagecolor="#ffffff"
     bordercolor="#666666"
     borderopacity="1"
     objecttolerance="10"
     gridtolerance="10"
     guidetolerance="10"
     inkscape:pageopacity="0"
     inkscape:pageshadow="2"
     inkscape:window-width="1366"
     inkscape:window-height="768"
     id="namedview4108"
     showgrid="false"
     inkscape:zoom="0.6675088"
     inkscape:cx="411.95619"
     inkscape:cy="214.56576"
     inkscape:window-x="0"
     inkscape:window-y="0"
     inkscape:window-maximized="0"
     inkscape:current-layer="g4114" /><g
     id="g4114"
     inkscape:groupmode="layer"
     inkscape:label="ink_ext_XXXXXX"
     transform="matrix(1.25,0,0,-1.25,0,500)"><g
       id="g5169"
       transform="matrix(0.53399814,0,0,0.53399814,29.566987,211.79042)"><path
         inkscape:connector-curvature="0"
         d="m 471.81761,139.89921 -16.83401,12.575 104.08401,139.365 16.836,-12.576 -104.086,-139.364"
         style="fill:#ffffff;fill-opacity:1;fill-rule:nonzero;stroke:none"
         id="path4953" /><path
         inkscape:connector-curvature="0"
         d="m 440.14161,161.63621 -18.811,9.37 37.352,75.001 18.81,-9.367 -37.351,-75.004"
         style="fill:#ffffff;fill-opacity:1;fill-rule:nonzero;stroke:none"
         id="path4955" /><path
         inkscape:connector-curvature="0"
         d="m 405.09261,177.36621 -20.184,5.863 36.733,126.51 20.186,-5.857 -36.73501,-126.516"
         style="fill:#ffffff;fill-opacity:1;fill-rule:nonzero;stroke:none"
         id="path4957" /><path
         inkscape:connector-curvature="0"
         d="m 367.79961,186.58621 -20.905,2.163 8.611,83.316 20.91199,-2.165 -8.61799,-83.314"
         style="fill:#ffffff;fill-opacity:1;fill-rule:nonzero;stroke:none"
         id="path4959" /><path
         inkscape:connector-curvature="0"
         d="m 308.50161,187.39621 -7.17101,93.579 20.95401,1.602 7.17099,-93.578 -20.95399,-1.603"
         style="fill:#ffffff;fill-opacity:1;fill-rule:nonzero;stroke:none"
         id="path4961" /><path
         inkscape:connector-curvature="0"
         d="m 270.97261,179.21021 -16.26901,62.141 20.33001,5.322 16.257,-62.141 -20.318,-5.322"
         style="fill:#ffffff;fill-opacity:1;fill-rule:nonzero;stroke:none"
         id="path4963" /><path
         inkscape:connector-curvature="0"
         d="m 235.50961,164.44921 -18.16901,39.041 19.043,8.865 18.174,-39.04 -19.04799,-8.866"
         style="fill:#ffffff;fill-opacity:1;fill-rule:nonzero;stroke:none"
         id="path4965" /><path
         inkscape:connector-curvature="0"
         d="m 203.2396,143.59321 -9.739,13.794 17.165,12.122 9.73201,-13.795 -17.158,-12.121"
         style="fill:#ffffff;fill-opacity:1;fill-rule:nonzero;stroke:none"
         id="path4967" /><path
         inkscape:connector-curvature="0"
         d="m 175.2186,117.31121 -49.27899,48.381 14.718,14.999 49.282,-48.379 -14.721,-15.001"
         style="fill:#ffffff;fill-opacity:1;fill-rule:nonzero;stroke:none"
         id="path4969" /><path
         inkscape:connector-curvature="0"
         d="m 152.33761,86.45321 -76.250505,52.288 11.8095,17.378 76.250995,-52.288 -11.80999,-17.378"
         style="fill:#ffffff;fill-opacity:1;fill-rule:nonzero;stroke:none"
         id="path4971" /><path
         inkscape:connector-curvature="0"
         d="m 135.3376,52.00821 -48.016995,21.282 8.515,19.208 48.021995,-21.284 -8.52,-19.206"
         style="fill:#ffffff;fill-opacity:1;fill-rule:nonzero;stroke:none"
         id="path4973" /><path
         inkscape:connector-curvature="0"
         d="m -17.459395,49.53221 142.229995,-34.46 4.944,20.422 -142.223995,34.455 -4.95,-20.417"
         style="fill:#ffffff;fill-opacity:1;fill-rule:nonzero;stroke:none"
         id="path4975" /><path
         inkscape:connector-curvature="0"
         d="m 120.95561,-23.15479 -106.109905,6.18 1.2258,20.982 106.106105,-6.184 -1.222,-20.978"
         style="fill:#ffffff;fill-opacity:1;fill-rule:nonzero;stroke:none"
         id="path4977" /><path
         inkscape:connector-curvature="0"
         d="m 21.190605,-73.98379 -2.5402,20.853 102.844205,12.54 2.541,-20.851 -102.845005,-12.542"
         style="fill:#ffffff;fill-opacity:1;fill-rule:nonzero;stroke:none"
         id="path4979" /><path
         inkscape:connector-curvature="0"
         d="m 110.88861,-105.70579 -6.227,20.067 23.00799,7.136 6.223,-20.062 -23.00399,-7.141"
         style="fill:#ffffff;fill-opacity:1;fill-rule:nonzero;stroke:none"
         id="path4981" /><path
         inkscape:connector-curvature="0"
         d="m 72.925005,-173.62679 -9.709,18.636 77.299605,40.285 9.71199,-18.635 -77.302595,-40.286"
         style="fill:#ffffff;fill-opacity:1;fill-rule:nonzero;stroke:none"
         id="path4983" /><path
         inkscape:connector-curvature="0"
         d="m 98.261605,-222.24879 -12.88,16.6 74.247005,57.609 12.87799,-16.596 -74.244995,-57.613"
         style="fill:#ffffff;fill-opacity:1;fill-rule:nonzero;stroke:none"
         id="path4985" /><path
         inkscape:connector-curvature="0"
         d="m 138.83661,-259.62659 -15.637,14.0318 61.184,68.176 15.638,-14.031 -61.185,-68.1768"
         style="fill:#ffffff;fill-opacity:1;fill-rule:nonzero;stroke:none"
         id="path4987" /><path
         inkscape:connector-curvature="0"
         d="m 209.71161,-248.92969 -17.897,11.0149 22.166,36.013 17.89499,-11.016 -22.16399,-36.0119"
         style="fill:#ffffff;fill-opacity:1;fill-rule:nonzero;stroke:none"
         id="path4989" /><path
         inkscape:connector-curvature="0"
         d="m 237.10961,-305.04259 -19.57301,7.6457 29.945,76.6871 19.571,-7.645 -29.94299,-76.6878"
         style="fill:#ffffff;fill-opacity:1;fill-rule:nonzero;stroke:none"
         id="path4991" /><path
         inkscape:connector-curvature="0"
         d="m 289.9506,-311.42189 -20.623,4.0273 14.472,74.1518 20.623,-4.023 -14.472,-74.1561"
         style="fill:#ffffff;fill-opacity:1;fill-rule:nonzero;stroke:none"
         id="path4993" /><path
         inkscape:connector-curvature="0"
         d="m 342.08261,-291.90469 -21.01101,0.2808 0.697,52.5431 21.01101,-0.275 -0.697,-52.5489"
         style="fill:#ffffff;fill-opacity:1;fill-rule:nonzero;stroke:none"
         id="path4995" /><path
         inkscape:connector-curvature="0"
         d="m 376.98761,-338.2559 -16.815,100.21211 20.727,3.48 16.81,-100.2101 -20.722,-3.48201"
         style="fill:#ffffff;fill-opacity:1;fill-rule:nonzero;stroke:none"
         id="path4997" /><path
         inkscape:connector-curvature="0"
         d="m 418.57861,-287.92079 -20.8,57.754 19.76299,7.118 20.80001,-57.7509 -19.763,-7.1211"
         style="fill:#ffffff;fill-opacity:1;fill-rule:nonzero;stroke:none"
         id="path4999" /><path
         inkscape:connector-curvature="0"
         d="m 433.3686,-215.71079 76.21101,-129.983 18.183,10.5422 -76.216,129.9758 -18.17801,-10.535"
         style="fill:#ffffff;fill-opacity:1;fill-rule:nonzero;stroke:none"
         id="path5001" /><path
         inkscape:connector-curvature="0"
         d="m 477.82761,-207.50479 -11.615,11.921 15.184,14.53 11.619,-11.919 -15.188,-14.532"
         style="fill:#ffffff;fill-opacity:1;fill-rule:nonzero;stroke:none"
         id="path5003" /><path
         inkscape:connector-curvature="0"
         d="m 546.43061,-212.00979 -52.39,42.928 13.32299,16.254 52.39,-42.926 -13.32299,-16.256"
         style="fill:#ffffff;fill-opacity:1;fill-rule:nonzero;stroke:none"
         id="path5005" /><path
         inkscape:connector-curvature="0"
         d="m 570.69261,-168.12579 -53.506,29.716 10.195,18.37 53.513,-29.712 -10.202,-18.374"
         style="fill:#ffffff;fill-opacity:1;fill-rule:nonzero;stroke:none"
         id="path5007" /><path
         inkscape:connector-curvature="0"
         d="m 560.31661,-112.87779 -25.85,8.781 6.758,19.898 25.84099,-8.777 -6.74899,-19.902"
         style="fill:#ffffff;fill-opacity:1;fill-rule:nonzero;stroke:none"
         id="path5009" /><path
         inkscape:connector-curvature="0"
         d="m 626.3306,-79.32079 -80.97899,12.065 3.09399,20.783 80.982,-12.063 -3.097,-20.785"
         style="fill:#ffffff;fill-opacity:1;fill-rule:nonzero;stroke:none"
         id="path5011" /><path
         inkscape:connector-curvature="0"
         d="m 549.48261,-29.05679 -0.668,21.002 51.964,1.641 0.67,-21.008 -51.966,-1.635"
         style="fill:#ffffff;fill-opacity:1;fill-rule:nonzero;stroke:none"
         id="path5013" /><path
         inkscape:connector-curvature="0"
         d="m 546.72861,9.25821 -4.405,20.546 64.252,13.778 4.41,-20.547 -64.257,-13.777"
         style="fill:#ffffff;fill-opacity:1;fill-rule:nonzero;stroke:none"
         id="path5015" /><path
         inkscape:connector-curvature="0"
         d="m 537.17461,46.47521 -8.003,19.426 41.454,17.074 7.997,-19.423 -41.448,-17.077"
         style="fill:#ffffff;fill-opacity:1;fill-rule:nonzero;stroke:none"
         id="path5017" /><path
         inkscape:connector-curvature="0"
         d="m 521.12761,81.37521 -11.33901,17.694 109.724,70.363 11.346,-17.692 -109.731,-70.365"
         style="fill:#ffffff;fill-opacity:1;fill-rule:nonzero;stroke:none"
         id="path5019" /><path
         inkscape:connector-curvature="0"
         d="m 499.11061,112.86021 -14.31901,15.372 16.57801,15.44 14.31,-15.375 -16.569,-15.437"
         style="fill:#ffffff;fill-opacity:1;fill-rule:nonzero;stroke:none"
         id="path5021" /><path
         inkscape:connector-curvature="0"
         d="m 382.1586,-49.59379 c -7.726,0 -14.053,6.044 -14.54099,13.649 l -11.92701,2.02 c -2.61799,-9.784 -11.55399,-17.012 -22.15199,-17.012 -3.13101,0 -6.116,0.632 -8.83801,1.772 l -6.282,-10.888 c 3.33801,-2.675 5.48301,-6.778 5.48301,-11.378 0,-8.044 -6.54101,-14.588 -14.58901,-14.588 -8.044,0 -14.588,6.544 -14.588,14.588 0,8.042 6.544,14.586 14.588,14.586 1.76,0 3.441,-0.329 5.004,-0.902 l 6.255,10.839 c -6.01799,4.138 -9.97399,11.07 -9.97399,18.909 0,10.845 7.565,19.951 17.693,22.331 l -1.40201,10.699 c -0.011,0 -0.022,-0.002 -0.034,-0.002 -8.04499,0 -14.58899,6.544 -14.58899,14.586 0,8.044 6.544,14.588 14.58899,14.588 8.04201,0 14.58501,-6.544 14.58501,-14.588 0,-6.405 -4.15601,-11.848 -9.909,-13.803 l 1.42699,-10.882 c 0.193,0.005 0.38601,0.015 0.581,0.015 12.647,0 22.932,-10.293 22.932,-22.944 0,-0.429 -0.014,-0.855 -0.037,-1.279 l 11.645,-1.973 c 1.66499,6.226 7.33899,10.831 14.07999,10.831 8.05001,0 14.59401,-6.544 14.59401,-14.588 0,-8.042 -6.544,-14.586 -14.59401,-14.586 z m 85.164,20.186 -0.471,15.395 -46.673,-1.427 45.668,9.731 -3.21099,15.065 -45.691,-9.737 43.216,17.735 -5.848,14.25 -43.17501,-17.718 39.32101,25.136 -8.296,12.978 -39.358,-25.159 34.234,31.78 -10.478,11.289 -34.231,-31.776 28.008,37.371 -12.326,9.236 -28.00701,-37.37 20.88701,41.768 -13.775,6.889 -20.889,-41.772 13.1,44.829 -14.78601,4.32 -13.09999,-44.831 4.89,46.445 -15.318,1.613 -5.063,-48.084 -3.774,48.202 -15.355,-1.203 3.64299,-46.542 -11.88699,45.143 -14.895,-3.922 11.894,-45.167 -19.763,42.318 -13.95501,-6.517 19.75901,-42.309 -26.992,38.103 -12.568,-8.902 27.005,-38.123 -33.373,32.689 -10.777,-11.004 33.353,-32.67 -38.649,26.196 -8.643,-12.75 38.665,-26.206 -42.721,18.884 -6.226,-14.088 42.719,-18.883 -45.405,10.953 -3.611,-14.972 45.392,-10.951 -46.613,2.676 -0.883,-15.377 46.635,-2.677 -46.363,-5.689 1.875,-15.287 46.373,5.69 -44.612,-13.874 4.574,-14.707 44.587,13.866 -41.396,-21.601 7.125,-13.656 41.397,21.601 -36.877,-28.641 9.447,-12.164 36.882,28.645 -31.178,-34.768 11.467,-10.283 31.171,34.76 -24.47,-39.766 13.117,-8.072 24.482,39.785 -16.987,-43.512 14.348,-5.602 16.987,43.513 -8.95,-45.845 15.117,-2.951 8.946,45.825 -0.622,-46.687 15.4,-0.206 0.623,46.721 7.724,-46.083 15.191,2.547 -7.717,46.046 15.809,-43.927 14.492,5.217 -15.815,43.942 23.403,-40.415 13.33,7.719 -23.396,40.403 30.231,-35.584 11.738,9.973 -30.239,35.594 36.101,-29.62 9.769,11.908 -36.125,29.64 40.836,-22.72 7.488,13.459 -40.798,22.699 44.192,-15.054 4.967,14.58 -44.215,15.062 46.195,-6.929 2.285,15.233 -46.21,6.93 46.698,1.428"
         style="fill:#ffffff;fill-opacity:1;fill-rule:nonzero;stroke:none"
         id="path5023" /></g></g></svg>