<?xml version="1.0" encoding="UTF-8" standalone="no"?>
<!-- Created with Inkscape (http://www.inkscape.org/) -->

<svg
   xmlns:dc="http://purl.org/dc/elements/1.1/"
   xmlns:cc="http://creativecommons.org/ns#"
   xmlns:rdf="http://www.w3.org/1999/02/22-rdf-syntax-ns#"
   xmlns:svg="http://www.w3.org/2000/svg"
   xmlns="http://www.w3.org/2000/svg"
   xmlns:sodipodi="http://sodipodi.sourceforge.net/DTD/sodipodi-0.dtd"
   xmlns:inkscape="http://www.inkscape.org/namespaces/inkscape"
   id="svg4106"
   version="1.1"
   inkscape:version="0.48.5 r10040"
   width="500"
   height="500"
   xml:space="preserve"
   sodipodi:docname="OKWG_ICON_SCIENCE_RGB.eps"><metadata
     id="metadata4112"><rdf:RDF><cc:Work
         rdf:about=""><dc:format>image/svg+xml</dc:format><dc:type
           rdf:resource="http://purl.org/dc/dcmitype/StillImage" /><dc:title></dc:title></cc:Work></rdf:RDF></metadata><defs
     id="defs4110" /><sodipodi:namedview
     pagecolor="#ffffff"
     bordercolor="#666666"
     borderopacity="1"
     objecttolerance="10"
     gridtolerance="10"
     guidetolerance="10"
     inkscape:pageopacity="0"
     inkscape:pageshadow="2"
     inkscape:window-width="451"
     inkscape:window-height="729"
     id="namedview4108"
     showgrid="false"
     inkscape:zoom="0.472"
     inkscape:cx="250"
     inkscape:cy="250"
     inkscape:window-x="456"
     inkscape:window-y="18"
     inkscape:window-maximized="0"
     inkscape:current-layer="g4114" /><g
     id="g4114"
     inkscape:groupmode="layer"
     inkscape:label="ink_ext_XXXXXX"
     transform="matrix(1.25,0,0,-1.25,0,500)"><g
       id="g4229"><path
         d="m 279.058,196.11 -0.251,8.22 -24.923,-0.761 24.386,5.196 -1.715,8.045 -24.398,-5.2 23.076,9.471 -3.122,7.609 -23.056,-9.461 20.998,13.422 -4.431,6.931 -21.016,-13.435 18.281,16.97 -5.596,6.029 -18.279,-16.969 14.956,19.956 -6.582,4.932 -14.956,-19.955 11.154,22.304 -7.356,3.678 -11.155,-22.306 6.996,23.939 -7.895,2.307 -6.996,-23.94 2.611,24.801 -8.18,0.862 -2.703,-25.677 -2.015,25.74 -8.2,-0.642 1.946,-24.854 -6.349,24.106 -7.953,-2.094 6.351,-24.119 -10.553,22.598 -7.452,-3.48 10.551,-22.593 -14.413,20.347 -6.712,-4.754 14.421,-20.358 -17.822,17.456 -5.755,-5.876 17.811,-17.445 -20.639,13.988 -4.615,-6.808 20.647,-13.994 -22.812,10.084 -3.325,-7.523 22.812,-10.084 -24.246,5.849 -1.929,-7.995 24.24,-5.848 -24.892,1.429 -0.471,-8.211 24.903,-1.43 -24.758,-3.037 1.001,-8.164 24.763,3.039 -23.823,-7.409 2.443,-7.853 23.809,7.404 -22.105,-11.535 3.805,-7.292 22.106,11.535 -19.693,-15.295 5.045,-6.495 19.695,15.296 -16.649,-18.565 6.123,-5.492 16.646,18.562 -13.067,-21.235 7.004,-4.31 13.073,21.245 -9.07,-23.236 7.661,-2.991 9.071,23.236 -4.779,-24.481 8.073,-1.576 4.777,24.47 -0.333,-24.931 8.224,-0.109 0.333,24.948 4.124,-24.608 8.112,1.36 -4.121,24.589 8.442,-23.457 7.739,2.786 -8.445,23.465 12.497,-21.582 7.118,4.122 -12.493,21.575 16.143,-19.001 6.268,5.325 -16.148,19.007 19.278,-15.817 5.217,6.359 -19.29,15.827 21.806,-12.132 3.999,7.187 -21.787,12.121 23.599,-8.038 2.652,7.785 -23.611,8.043 24.668,-3.7 1.221,8.134 -24.676,3.701 24.936,0.763"
         style="fill:#ff0000;fill-opacity:1;fill-rule:nonzero;stroke:none"
         id="path4118"
         inkscape:connector-curvature="0" /><path
         d="m 281.458,286.519 -8.989,6.715 55.581,74.421 8.99,-6.716 -55.582,-74.42"
         style="fill:#7ab800;fill-opacity:1;fill-rule:nonzero;stroke:none"
         id="path4120"
         inkscape:connector-curvature="0" /><path
         d="m 264.544,298.127 -10.045,5.003 19.945,40.051 10.045,-5.002 -19.945,-40.052"
         style="fill:#7ab800;fill-opacity:1;fill-rule:nonzero;stroke:none"
         id="path4122"
         inkscape:connector-curvature="0" /><path
         d="m 245.828,306.527 -10.779,3.13 19.616,67.557 10.779,-3.128 -19.616,-67.559"
         style="fill:#7ab800;fill-opacity:1;fill-rule:nonzero;stroke:none"
         id="path4124"
         inkscape:connector-curvature="0" /><path
         d="m 225.913,311.45 -11.163,1.155 4.598,44.491 11.167,-1.157 -4.602,-44.489"
         style="fill:#7ab800;fill-opacity:1;fill-rule:nonzero;stroke:none"
         id="path4126"
         inkscape:connector-curvature="0" /><path
         d="m 194.248,311.882 -3.829,49.972 11.189,0.855 3.83,-49.97 -11.19,-0.857"
         style="fill:#7ab800;fill-opacity:1;fill-rule:nonzero;stroke:none"
         id="path4128"
         inkscape:connector-curvature="0" /><path
         d="m 174.208,307.512 -8.688,33.183 10.856,2.842 8.682,-33.183 -10.85,-2.842"
         style="fill:#7ab800;fill-opacity:1;fill-rule:nonzero;stroke:none"
         id="path4130"
         inkscape:connector-curvature="0" /><path
         d="m 155.271,299.629 -9.703,20.848 10.169,4.734 9.705,-20.848 -10.171,-4.734"
         style="fill:#7ab800;fill-opacity:1;fill-rule:nonzero;stroke:none"
         id="path4132"
         inkscape:connector-curvature="0" /><path
         d="m 138.038,288.492 -5.2,7.366 9.166,6.473 5.197,-7.366 -9.163,-6.473"
         style="fill:#7ab800;fill-opacity:1;fill-rule:nonzero;stroke:none"
         id="path4134"
         inkscape:connector-curvature="0" /><path
         d="m 123.075,274.457 -26.3148,25.836 7.8598,8.009 26.316,-25.834 -7.861,-8.011"
         style="fill:#7ab800;fill-opacity:1;fill-rule:nonzero;stroke:none"
         id="path4136"
         inkscape:connector-curvature="0" /><path
         d="m 110.857,257.98 -40.7179,27.921 6.3062,9.28 40.7177,-27.922 -6.306,-9.279"
         style="fill:#7ab800;fill-opacity:1;fill-rule:nonzero;stroke:none"
         id="path4138"
         inkscape:connector-curvature="0" /><path
         d="m 101.779,239.586 -25.6411,11.364 4.5473,10.258 25.6428,-11.366 -4.549,-10.256"
         style="fill:#7ab800;fill-opacity:1;fill-rule:nonzero;stroke:none"
         id="path4140"
         inkscape:connector-curvature="0" /><path
         d="m 20.1855,238.263 75.9504,-18.401 2.6403,10.906 -75.9473,18.399 -2.6434,-10.904"
         style="fill:#7ab800;fill-opacity:1;fill-rule:nonzero;stroke:none"
         id="path4142"
         inkscape:connector-curvature="0" /><path
         d="m 94.0992,199.449 -56.6629,3.3 0.6547,11.204 56.6606,-3.302 -0.6524,-11.202"
         style="fill:#7ab800;fill-opacity:1;fill-rule:nonzero;stroke:none"
         id="path4144"
         inkscape:connector-curvature="0" /><path
         d="m 40.8246,172.306 -1.3566,11.136 54.9183,6.696 1.3571,-11.134 -54.9188,-6.698"
         style="fill:#7ab800;fill-opacity:1;fill-rule:nonzero;stroke:none"
         id="path4146"
         inkscape:connector-curvature="0" /><path
         d="m 88.723,155.367 -3.325,10.715 12.2864,3.811 3.3226,-10.713 -12.284,-3.813"
         style="fill:#7ab800;fill-opacity:1;fill-rule:nonzero;stroke:none"
         id="path4148"
         inkscape:connector-curvature="0" /><path
         d="m 68.4504,119.097 -5.1844,9.952 41.278,21.512 5.186,-9.951 -41.2796,-21.513"
         style="fill:#7ab800;fill-opacity:1;fill-rule:nonzero;stroke:none"
         id="path4150"
         inkscape:connector-curvature="0" /><path
         d="m 81.9805,93.1332 -6.8778,8.8638 39.6473,30.764 6.877,-8.863 -39.6465,-30.7648"
         style="fill:#7ab800;fill-opacity:1;fill-rule:nonzero;stroke:none"
         id="path4152"
         inkscape:connector-curvature="0" /><path
         d="m 103.647,73.1742 -8.3501,7.4918 32.6721,36.406 8.351,-7.492 -32.673,-36.4058"
         style="fill:#7ab800;fill-opacity:1;fill-rule:nonzero;stroke:none"
         id="path4154"
         inkscape:connector-curvature="0" /><path
         d="m 141.495,78.8852 -9.558,5.8828 11.837,19.23 9.556,-5.882 -11.835,-19.2308"
         style="fill:#7ab800;fill-opacity:1;fill-rule:nonzero;stroke:none"
         id="path4156"
         inkscape:connector-curvature="0" /><path
         d="m 156.125,48.9211 -10.452,4.0828 15.99,40.9512 10.451,-4.0832 -15.989,-40.9508"
         style="fill:#7ab800;fill-opacity:1;fill-rule:nonzero;stroke:none"
         id="path4158"
         inkscape:connector-curvature="0" /><path
         d="m 184.342,45.5148 -11.013,2.15 7.728,39.5973 11.013,-2.148 -7.728,-39.5993"
         style="fill:#7ab800;fill-opacity:1;fill-rule:nonzero;stroke:none"
         id="path4160"
         inkscape:connector-curvature="0" /><path
         d="m 212.18,55.9371 -11.22,0.15 0.373,28.0578 11.219,-0.1469 -0.372,-28.0609"
         style="fill:#7ab800;fill-opacity:1;fill-rule:nonzero;stroke:none"
         id="path4162"
         inkscape:connector-curvature="0" /><path
         d="m 230.819,31.1859 -8.979,53.5129 11.068,1.8582 8.977,-53.5121 -11.066,-1.859"
         style="fill:#7ab800;fill-opacity:1;fill-rule:nonzero;stroke:none"
         id="path4164"
         inkscape:connector-curvature="0" /><path
         d="m 253.029,58.0648 -11.107,30.8403 10.553,3.8008 11.107,-30.8387 -10.553,-3.8024"
         style="fill:#7ab800;fill-opacity:1;fill-rule:nonzero;stroke:none"
         id="path4166"
         inkscape:connector-curvature="0" /><path
         d="m 260.927,96.625 40.696,-69.4109 9.71,5.6289 -40.699,69.407 -9.707,-5.625"
         style="fill:#7ab800;fill-opacity:1;fill-rule:nonzero;stroke:none"
         id="path4168"
         inkscape:connector-curvature="0" /><path
         d="m 284.668,101.007 -6.202,6.365 8.108,7.759 6.204,-6.365 -8.11,-7.759"
         style="fill:#7ab800;fill-opacity:1;fill-rule:nonzero;stroke:none"
         id="path4170"
         inkscape:connector-curvature="0" /><path
         d="m 321.302,98.6012 -27.976,22.9228 7.114,8.68 27.976,-22.922 -7.114,-8.6808"
         style="fill:#7ab800;fill-opacity:1;fill-rule:nonzero;stroke:none"
         id="path4172"
         inkscape:connector-curvature="0" /><path
         d="m 334.257,122.035 -28.572,15.868 5.445,9.81 28.575,-15.866 -5.448,-9.812"
         style="fill:#7ab800;fill-opacity:1;fill-rule:nonzero;stroke:none"
         id="path4174"
         inkscape:connector-curvature="0" /><path
         d="m 328.717,151.537 -13.804,4.689 3.609,10.626 13.799,-4.688 -3.604,-10.627"
         style="fill:#7ab800;fill-opacity:1;fill-rule:nonzero;stroke:none"
         id="path4176"
         inkscape:connector-curvature="0" /><path
         d="m 363.968,169.456 -43.243,6.443 1.653,11.098 43.244,-6.441 -1.654,-11.1"
         style="fill:#7ab800;fill-opacity:1;fill-rule:nonzero;stroke:none"
         id="path4178"
         inkscape:connector-curvature="0" /><path
         d="m 322.931,196.297 -0.356,11.215 27.748,0.877 0.358,-11.218 -27.75,-0.874"
         style="fill:#7ab800;fill-opacity:1;fill-rule:nonzero;stroke:none"
         id="path4180"
         inkscape:connector-curvature="0" /><path
         d="m 321.461,216.757 -2.353,10.972 34.311,7.357 2.355,-10.971 -34.313,-7.358"
         style="fill:#7ab800;fill-opacity:1;fill-rule:nonzero;stroke:none"
         id="path4182"
         inkscape:connector-curvature="0" /><path
         d="m 316.359,236.631 -4.273,10.373 22.136,9.118 4.27,-10.372 -22.133,-9.119"
         style="fill:#7ab800;fill-opacity:1;fill-rule:nonzero;stroke:none"
         id="path4184"
         inkscape:connector-curvature="0" /><path
         d="m 307.79,255.268 -6.055,9.448 58.592,37.574 6.059,-9.447 -58.596,-37.575"
         style="fill:#7ab800;fill-opacity:1;fill-rule:nonzero;stroke:none"
         id="path4186"
         inkscape:connector-curvature="0" /><path
         d="m 296.033,272.08 -7.646,8.209 8.852,8.245 7.642,-8.21 -8.848,-8.244"
         style="fill:#7ab800;fill-opacity:1;fill-rule:nonzero;stroke:none"
         id="path4188"
         inkscape:connector-curvature="0" /><path
         d="m 241.374,193.12 c 0,-4.295 -3.495,-7.789 -7.793,-7.789 -4.126,0 -7.505,3.227 -7.765,7.288 l -6.369,1.079 c -1.398,-5.225 -6.17,-9.085 -11.829,-9.085 -1.672,0 -3.266,0.338 -4.72,0.947 l -3.354,-5.815 c 1.782,-1.428 2.928,-3.619 2.928,-6.075 0,-4.296 -3.493,-7.791 -7.791,-7.791 -4.295,0 -7.79,3.495 -7.79,7.791 0,4.294 3.495,7.789 7.79,7.789 0.94,0 1.838,-0.176 2.672,-0.482 l 3.341,5.788 c -3.214,2.21 -5.327,5.911 -5.327,10.098 0,5.791 4.04,10.653 9.449,11.924 l -0.749,5.713 c -0.006,0 -0.012,-0.001 -0.019,-0.001 -4.295,0 -7.79,3.495 -7.79,7.789 0,4.296 3.495,7.79 7.79,7.79 4.295,0 7.789,-3.494 7.789,-7.79 0,-3.42 -2.219,-6.327 -5.291,-7.371 l 0.761,-5.811 c 0.104,0.003 0.206,0.008 0.311,0.008 6.753,0 12.246,-5.496 12.246,-12.251 0,-0.23 -0.008,-0.457 -0.02,-0.684 l 6.218,-1.053 c 0.889,3.325 3.919,5.784 7.519,5.784 4.298,0 7.793,-3.495 7.793,-7.79"
         style="fill:#ffffff;fill-opacity:1;fill-rule:nonzero;stroke:none"
         id="path4190"
         inkscape:connector-curvature="0" /></g></g></svg>