<?xml version="1.0" encoding="UTF-8" standalone="no"?>
<!-- Created with Inkscape (http://www.inkscape.org/) -->

<svg
   xmlns:dc="http://purl.org/dc/elements/1.1/"
   xmlns:cc="http://creativecommons.org/ns#"
   xmlns:rdf="http://www.w3.org/1999/02/22-rdf-syntax-ns#"
   xmlns:svg="http://www.w3.org/2000/svg"
   xmlns="http://www.w3.org/2000/svg"
   xmlns:sodipodi="http://sodipodi.sourceforge.net/DTD/sodipodi-0.dtd"
   xmlns:inkscape="http://www.inkscape.org/namespaces/inkscape"
   id="svg4106"
   version="1.1"
   inkscape:version="0.48.5 r10040"
   width="500"
   height="500"
   xml:space="preserve"
   sodipodi:docname="icon.svg"><metadata
     id="metadata4112"><rdf:RDF><cc:Work
         rdf:about=""><dc:format>image/svg+xml</dc:format><dc:type
           rdf:resource="http://purl.org/dc/dcmitype/StillImage" /><dc:title></dc:title></cc:Work></rdf:RDF></metadata><defs
     id="defs4110" /><sodipodi:namedview
     pagecolor="#ffffff"
     bordercolor="#666666"
     borderopacity="1"
     objecttolerance="10"
     gridtolerance="10"
     guidetolerance="10"
     inkscape:pageopacity="0"
     inkscape:pageshadow="2"
     inkscape:window-width="1366"
     inkscape:window-height="768"
     id="namedview4108"
     showgrid="false"
     inkscape:zoom="0.6675088"
     inkscape:cx="151.32794"
     inkscape:cy="210.91377"
     inkscape:window-x="0"
     inkscape:window-y="0"
     inkscape:window-maximized="0"
     inkscape:current-layer="g4114" /><g
     id="g4114"
     inkscape:groupmode="layer"
     inkscape:label="ink_ext_XXXXXX"
     transform="matrix(1.25,0,0,-1.25,0,500)"><g
       id="g4762"
       transform="matrix(0.53399814,0,0,0.53399814,310.15873,237.50014)"><path
         inkscape:connector-curvature="0"
         d="m -53.63639,91.77481 -16.834,12.575 104.084,139.365 16.836,-12.576 -104.086,-139.364"
         style="fill:#231f20;fill-opacity:1;fill-rule:nonzero;stroke:none"
         id="path4546" /><path
         inkscape:connector-curvature="0"
         d="m -85.31239,113.51181 -18.811,9.37 37.352,75.001 18.81,-9.367 -37.351,-75.004"
         style="fill:#231f20;fill-opacity:1;fill-rule:nonzero;stroke:none"
         id="path4548" /><path
         inkscape:connector-curvature="0"
         d="m -120.36139,129.24181 -20.184,5.863 36.733,126.51 20.186,-5.857 -36.735,-126.516"
         style="fill:#231f20;fill-opacity:1;fill-rule:nonzero;stroke:none"
         id="path4550" /><path
         inkscape:connector-curvature="0"
         d="m -157.65439,138.46181 -20.905,2.163 8.611,83.316 20.912,-2.165 -8.618,-83.314"
         style="fill:#231f20;fill-opacity:1;fill-rule:nonzero;stroke:none"
         id="path4552" /><path
         inkscape:connector-curvature="0"
         d="m -216.95239,139.27181 -7.171,93.579 20.954,1.602 7.171,-93.578 -20.954,-1.603"
         style="fill:#231f20;fill-opacity:1;fill-rule:nonzero;stroke:none"
         id="path4554" /><path
         inkscape:connector-curvature="0"
         d="m -254.48139,131.08581 -16.269,62.141 20.33,5.322 16.257,-62.141 -20.318,-5.322"
         style="fill:#231f20;fill-opacity:1;fill-rule:nonzero;stroke:none"
         id="path4556" /><path
         inkscape:connector-curvature="0"
         d="m -289.94439,116.32481 -18.169,39.041 19.043,8.865 18.174,-39.04 -19.048,-8.866"
         style="fill:#231f20;fill-opacity:1;fill-rule:nonzero;stroke:none"
         id="path4558" /><path
         inkscape:connector-curvature="0"
         d="m -322.21439,95.46881 -9.739,13.794 17.165,12.122 9.732,-13.795 -17.158,-12.121"
         style="fill:#231f20;fill-opacity:1;fill-rule:nonzero;stroke:none"
         id="path4560" /><path
         inkscape:connector-curvature="0"
         d="m -350.23539,69.18681 -49.279,48.381 14.718,14.999 49.282,-48.379 -14.721,-15.001"
         style="fill:#231f20;fill-opacity:1;fill-rule:nonzero;stroke:none"
         id="path4562" /><path
         inkscape:connector-curvature="0"
         d="m -373.11639,38.32881 -76.2505,52.288 11.8095,17.378 76.251,-52.288 -11.81,-17.378"
         style="fill:#231f20;fill-opacity:1;fill-rule:nonzero;stroke:none"
         id="path4564" /><path
         inkscape:connector-curvature="0"
         d="m -390.11639,3.88381 -48.017,21.282 8.515,19.208 48.022,-21.284 -8.52,-19.206"
         style="fill:#231f20;fill-opacity:1;fill-rule:nonzero;stroke:none"
         id="path4566" /><path
         inkscape:connector-curvature="0"
         d="m -542.91339,1.40781 142.23,-34.46 4.944,20.422 -142.224,34.455 -4.95,-20.417"
         style="fill:#231f20;fill-opacity:1;fill-rule:nonzero;stroke:none"
         id="path4568" /><path
         inkscape:connector-curvature="0"
         d="m -404.49839,-71.27919 -106.1099,6.18 1.2258,20.982 106.1061,-6.184 -1.222,-20.978"
         style="fill:#231f20;fill-opacity:1;fill-rule:nonzero;stroke:none"
         id="path4570" /><path
         inkscape:connector-curvature="0"
         d="m -504.26339,-122.10819 -2.5402,20.853 102.8442,12.54 2.541,-20.851 -102.845,-12.542"
         style="fill:#231f20;fill-opacity:1;fill-rule:nonzero;stroke:none"
         id="path4572" /><path
         inkscape:connector-curvature="0"
         d="m -414.56539,-153.83019 -6.227,20.067 23.008,7.136 6.223,-20.062 -23.004,-7.141"
         style="fill:#231f20;fill-opacity:1;fill-rule:nonzero;stroke:none"
         id="path4574" /><path
         inkscape:connector-curvature="0"
         d="m -452.52899,-221.75119 -9.709,18.636 77.2996,40.285 9.712,-18.635 -77.3026,-40.286"
         style="fill:#231f20;fill-opacity:1;fill-rule:nonzero;stroke:none"
         id="path4576" /><path
         inkscape:connector-curvature="0"
         d="m -427.19239,-270.37319 -12.88,16.6 74.247,57.609 12.878,-16.596 -74.245,-57.613"
         style="fill:#231f20;fill-opacity:1;fill-rule:nonzero;stroke:none"
         id="path4578" /><path
         inkscape:connector-curvature="0"
         d="m -386.61739,-307.75099 -15.637,14.0318 61.184,68.176 15.638,-14.031 -61.185,-68.1768"
         style="fill:#231f20;fill-opacity:1;fill-rule:nonzero;stroke:none"
         id="path4580" /><path
         inkscape:connector-curvature="0"
         d="m -315.74239,-297.05409 -17.897,11.0149 22.166,36.013 17.895,-11.016 -22.164,-36.0119"
         style="fill:#231f20;fill-opacity:1;fill-rule:nonzero;stroke:none"
         id="path4582" /><path
         inkscape:connector-curvature="0"
         d="m -288.34439,-353.16699 -19.573,7.6457 29.945,76.6871 19.571,-7.645 -29.943,-76.6878"
         style="fill:#231f20;fill-opacity:1;fill-rule:nonzero;stroke:none"
         id="path4584" /><path
         inkscape:connector-curvature="0"
         d="m -235.50339,-359.54629 -20.623,4.0273 14.472,74.1518 20.623,-4.023 -14.472,-74.1561"
         style="fill:#231f20;fill-opacity:1;fill-rule:nonzero;stroke:none"
         id="path4586" /><path
         inkscape:connector-curvature="0"
         d="m -183.37139,-340.02909 -21.011,0.2808 0.697,52.5431 21.011,-0.275 -0.697,-52.5489"
         style="fill:#231f20;fill-opacity:1;fill-rule:nonzero;stroke:none"
         id="path4588" /><path
         inkscape:connector-curvature="0"
         d="m -148.46639,-386.3803 -16.815,100.21211 20.727,3.48 16.81,-100.2101 -20.722,-3.48201"
         style="fill:#231f20;fill-opacity:1;fill-rule:nonzero;stroke:none"
         id="path4590" /><path
         inkscape:connector-curvature="0"
         d="m -106.87539,-336.04519 -20.8,57.754 19.763,7.118 20.8,-57.7509 -19.763,-7.1211"
         style="fill:#231f20;fill-opacity:1;fill-rule:nonzero;stroke:none"
         id="path4592" /><path
         inkscape:connector-curvature="0"
         d="m -92.08539,-263.83519 76.211,-129.983 18.183,10.5422 -76.216,129.9758 -18.178,-10.535"
         style="fill:#231f20;fill-opacity:1;fill-rule:nonzero;stroke:none"
         id="path4594" /><path
         inkscape:connector-curvature="0"
         d="m -47.62639,-255.62919 -11.615,11.921 15.184,14.53 11.619,-11.919 -15.188,-14.532"
         style="fill:#231f20;fill-opacity:1;fill-rule:nonzero;stroke:none"
         id="path4596" /><path
         inkscape:connector-curvature="0"
         d="m 20.97661,-260.13419 -52.39,42.928 13.323,16.254 52.39,-42.926 -13.323,-16.256"
         style="fill:#231f20;fill-opacity:1;fill-rule:nonzero;stroke:none"
         id="path4598" /><path
         inkscape:connector-curvature="0"
         d="m 45.23861,-216.25019 -53.506,29.716 10.195,18.37 53.513,-29.712 -10.202,-18.374"
         style="fill:#231f20;fill-opacity:1;fill-rule:nonzero;stroke:none"
         id="path4600" /><path
         inkscape:connector-curvature="0"
         d="m 34.86261,-161.00219 -25.85,8.781 6.758,19.898 25.841,-8.777 -6.749,-19.902"
         style="fill:#231f20;fill-opacity:1;fill-rule:nonzero;stroke:none"
         id="path4602" /><path
         inkscape:connector-curvature="0"
         d="m 100.87661,-127.44519 -80.979,12.065 3.094,20.783 80.982,-12.063 -3.097,-20.785"
         style="fill:#231f20;fill-opacity:1;fill-rule:nonzero;stroke:none"
         id="path4604" /><path
         inkscape:connector-curvature="0"
         d="m 24.02861,-77.18119 -0.668,21.002 51.964,1.641 0.67,-21.008 -51.966,-1.635"
         style="fill:#231f20;fill-opacity:1;fill-rule:nonzero;stroke:none"
         id="path4606" /><path
         inkscape:connector-curvature="0"
         d="m 21.27461,-38.86619 -4.405,20.546 64.252,13.778 4.41,-20.547 -64.257,-13.777"
         style="fill:#231f20;fill-opacity:1;fill-rule:nonzero;stroke:none"
         id="path4608" /><path
         inkscape:connector-curvature="0"
         d="m 11.72061,-1.64919 -8.003,19.426 41.454,17.074 7.997,-19.423 -41.448,-17.077"
         style="fill:#231f20;fill-opacity:1;fill-rule:nonzero;stroke:none"
         id="path4610" /><path
         inkscape:connector-curvature="0"
         d="m -4.32639,33.25081 -11.339,17.694 109.724,70.363 11.346,-17.692 -109.731,-70.365"
         style="fill:#231f20;fill-opacity:1;fill-rule:nonzero;stroke:none"
         id="path4612" /><path
         inkscape:connector-curvature="0"
         d="m -26.34339,64.73581 -14.319,15.372 16.578,15.44 14.31,-15.375 -16.569,-15.437"
         style="fill:#231f20;fill-opacity:1;fill-rule:nonzero;stroke:none"
         id="path4614" /><path
         inkscape:connector-curvature="0"
         d="m -143.29539,-97.71819 c -7.726,0 -14.053,6.044 -14.541,13.649 l -11.927,2.02 c -2.618,-9.784 -11.554,-17.012 -22.152,-17.012 -3.131,0 -6.116,0.632 -8.838,1.772 l -6.282,-10.888 c 3.338,-2.675 5.483,-6.778 5.483,-11.378 0,-8.044 -6.541,-14.588 -14.589,-14.588 -8.044,0 -14.588,6.544 -14.588,14.588 0,8.042 6.544,14.586 14.588,14.586 1.76,0 3.441,-0.329 5.004,-0.902 l 6.255,10.839 c -6.018,4.138 -9.974,11.07 -9.974,18.909 0,10.845 7.565,19.951 17.693,22.331 l -1.402,10.699 c -0.011,0 -0.022,-0.002 -0.034,-0.002 -8.045,0 -14.589,6.544 -14.589,14.586 0,8.044 6.544,14.588 14.589,14.588 8.042,0 14.585,-6.544 14.585,-14.588 0,-6.405 -4.156,-11.848 -9.909,-13.803 l 1.427,-10.882 c 0.193,0.005 0.386,0.015 0.581,0.015 12.647,0 22.932,-10.293 22.932,-22.944 0,-0.429 -0.014,-0.855 -0.037,-1.279 l 11.645,-1.973 c 1.665,6.226 7.339,10.831 14.08,10.831 8.05,0 14.594,-6.544 14.594,-14.588 0,-8.042 -6.544,-14.586 -14.594,-14.586 z m 85.164,20.186 -0.471,15.395 -46.673,-1.427 45.668,9.731 -3.211,15.065 -45.691,-9.737 43.216,17.735 -5.848,14.25 -43.175,-17.718 39.321,25.136 -8.296,12.978 -39.358,-25.159 34.234,31.78 -10.478,11.289 -34.231,-31.776 28.008,37.371 -12.326,9.236 -28.007,-37.37 20.887,41.768 -13.775,6.889 -20.889,-41.772 13.1,44.829 -14.786,4.32 -13.1,-44.831 4.89,46.445 -15.318,1.613 -5.063,-48.084 -3.774,48.202 -15.355,-1.203 3.643,-46.542 -11.887,45.143 -14.895,-3.922 11.894,-45.167 -19.763,42.318 -13.955,-6.517 19.759,-42.309 -26.992,38.103 -12.568,-8.902 27.005,-38.123 -33.373,32.689 -10.777,-11.004 33.353,-32.67 -38.649,26.196 -8.643,-12.75 38.665,-26.206 -42.721,18.884 -6.226,-14.088 42.719,-18.883 -45.405,10.953 -3.611,-14.972 45.392,-10.951 -46.613,2.676 -0.883,-15.377 46.635,-2.677 -46.363,-5.689 1.875,-15.287 46.373,5.69 -44.612,-13.874 4.574,-14.707 44.587,13.866 -41.396,-21.601 7.125,-13.656 41.397,21.601 -36.877,-28.641 9.447,-12.164 36.882,28.645 -31.178,-34.768 11.467,-10.283 31.171,34.76 -24.47,-39.766 13.117,-8.072 24.482,39.785 -16.987,-43.512 14.348,-5.602 16.987,43.513 -8.95,-45.845 15.117,-2.951 8.946,45.825 -0.622,-46.687 15.4,-0.206 0.623,46.721 7.724,-46.083 15.191,2.547 -7.717,46.046 15.809,-43.927 14.492,5.217 -15.815,43.942 23.403,-40.415 13.33,7.719 -23.396,40.403 30.231,-35.584 11.738,9.973 -30.239,35.594 36.101,-29.62 9.769,11.908 -36.125,29.64 40.836,-22.72 7.488,13.459 -40.798,22.699 44.192,-15.054 4.967,14.58 -44.215,15.062 46.195,-6.929 2.285,15.233 -46.21,6.93 46.698,1.428"
         style="fill:#231f20;fill-opacity:1;fill-rule:nonzero;stroke:none"
         id="path4616" /></g></g></svg>