<?xml version="1.0" encoding="UTF-8" standalone="no"?>
<!-- Created with Inkscape (http://www.inkscape.org/) -->

<svg
   xmlns:dc="http://purl.org/dc/elements/1.1/"
   xmlns:cc="http://creativecommons.org/ns#"
   xmlns:rdf="http://www.w3.org/1999/02/22-rdf-syntax-ns#"
   xmlns:svg="http://www.w3.org/2000/svg"
   xmlns="http://www.w3.org/2000/svg"
   xmlns:sodipodi="http://sodipodi.sourceforge.net/DTD/sodipodi-0.dtd"
   xmlns:inkscape="http://www.inkscape.org/namespaces/inkscape"
   id="svg3004"
   version="1.1"
   inkscape:version="0.48.5 r10040"
   width="259.665"
   height="259.665"
   xml:space="preserve"
   sodipodi:docname="pdf_redondo_5x5.pdf"><metadata
     id="metadata3010"><rdf:RDF><cc:Work
         rdf:about=""><dc:format>image/svg+xml</dc:format><dc:type
           rdf:resource="http://purl.org/dc/dcmitype/StillImage" /><dc:title></dc:title></cc:Work></rdf:RDF></metadata><defs
     id="defs3008"><clipPath
       clipPathUnits="userSpaceOnUse"
       id="clipPath3018"><path
         d="m 24.496,183.236 158.74,0 0,-158.74 -158.74,0 0,158.74 z"
         id="path3020" /></clipPath><clipPath
       clipPathUnits="userSpaceOnUse"
       id="clipPath3034"><path
         d="m 24.496,183.236 158.74,0 0,-158.74 -158.74,0 0,158.74 z"
         id="path3036" /></clipPath></defs><sodipodi:namedview
     pagecolor="#ffffff"
     bordercolor="#666666"
     borderopacity="1"
     objecttolerance="10"
     gridtolerance="10"
     guidetolerance="10"
     inkscape:pageopacity="0"
     inkscape:pageshadow="2"
     inkscape:window-width="1362"
     inkscape:window-height="729"
     id="namedview3006"
     showgrid="false"
     inkscape:zoom="2.0449425"
     inkscape:cx="63.210516"
     inkscape:cy="119.79389"
     inkscape:window-x="0"
     inkscape:window-y="18"
     inkscape:window-maximized="0"
     inkscape:current-layer="g3012" /><g
     id="g3012"
     inkscape:groupmode="layer"
     inkscape:label="pdf_redondo_5x5"
     transform="matrix(1.25,0,0,-1.25,0,259.665)"><g
       id="g3042"
       transform="translate(27,174.7324)"><path
         d="m 0,0 -27,0 m 180.732,0 27,0 M 0,-141.732 l -27,0 m 180.732,0 27,0 M 6,6 6,33 m 0,-180.732 0,-27 M 147.732,6 l 0,27 m 0,-180.732 0,-27"
         style="fill:none;stroke:#ffffff;stroke-opacity:1;stroke-width:1.25;stroke-linecap:butt;stroke-linejoin:miter;stroke-miterlimit:10;stroke-dasharray:none"
         id="path3044" /></g><g
       id="g3046"
       transform="translate(27,174.7324)"><path
         d="m 0,0 -27,0 m 180.732,0 27,0 M 0,-141.732 l -27,0 m 180.732,0 27,0 M 6,6 6,33 m 0,-180.732 0,-27 M 147.732,6 l 0,27 m 0,-180.732 0,-27"
         style="fill:none;stroke:#000000;stroke-opacity:1;stroke-width:0.25;stroke-linecap:butt;stroke-linejoin:miter;stroke-miterlimit:10;stroke-dasharray:none"
         id="path3048" /></g><g
       transform="matrix(0.27729596,0,0,0.27729596,50.268646,47.792857)"
       inkscape:label="ink_ext_XXXXXX"
       id="g4084"><g
         transform="scale(0.1,0.1)"
         id="g4086"><path
           id="path4088"
           style="fill:#ff0000;fill-opacity:1;fill-rule:nonzero;stroke:none"
           d="m 2790.58,1961.1 -2.51,82.2 -249.23,-7.61 243.86,51.96 -17.15,80.45 -243.98,-52 230.76,94.71 -31.22,76.09 -230.56,-94.61 209.98,134.22 -44.31,69.31 -210.16,-134.35 182.81,169.7 -55.96,60.29 -182.79,-169.69 149.56,199.56 -65.82,49.32 -149.56,-199.55 111.54,223.04 -73.56,36.78 -111.55,-223.06 69.96,239.39 -78.95,23.07 -69.96,-239.4 26.11,248.01 -81.8,8.62 -27.03,-256.77 -20.15,257.4 -82,-6.42 19.46,-248.54 -63.49,241.06 -79.53,-20.94 63.51,-241.19 -105.53,225.98 -74.52,-34.8 105.51,-225.93 -144.13,203.47 -67.12,-47.54 144.21,-203.58 -178.22,174.56 -57.55,-58.76 178.11,-174.45 -206.39,139.88 -46.15,-68.08 206.47,-139.94 -228.12,100.84 -33.25,-75.23 228.12,-100.84 -242.46,58.49 -19.29,-79.95 242.4,-58.48 -248.92,14.29 -4.71,-82.11 249.03,-14.3 -247.58,-30.37 10.01,-81.64 247.63,30.39 -238.23,-74.09 24.43,-78.53 238.09,74.04 -221.05,-115.35 38.05,-72.92 221.06,115.35 -196.93,-152.95 50.45,-64.95 196.95,152.96 -166.49,-185.65 61.23,-54.92 166.46,185.62 -130.67,-212.35 70.04,-43.1 130.73,212.45 -90.7,-232.36 76.61,-29.91 90.71,232.36 -47.79,-244.81 80.73,-15.76 47.77,244.7 -3.33,-249.31 82.24,-1.09 3.33,249.48 41.24,-246.08 81.12,13.6 -41.21,245.89 84.42,-234.57 77.39,27.86 -84.45,234.65 124.97,-215.82 71.18,41.22 -124.93,215.75 161.43,-190.01 62.68,53.25 -161.48,190.07 192.78,-158.17 52.17,63.59 -192.9,158.27 218.06,-121.32 39.99,71.87 -217.87,121.21 235.99,-80.38 26.52,77.85 -236.11,80.43 246.68,-37 12.21,81.34 -246.76,37.01 249.36,7.63"
           inkscape:connector-curvature="0" /><path
           id="path4090"
           style="fill:#7ab800;fill-opacity:1;fill-rule:nonzero;stroke:none"
           d="m 2814.58,2865.19 -89.89,67.15 555.81,744.21 89.9,-67.16 -555.82,-744.2"
           inkscape:connector-curvature="0" /><path
           id="path4092"
           style="fill:#7ab800;fill-opacity:1;fill-rule:nonzero;stroke:none"
           d="m 2645.44,2981.27 -100.45,50.03 199.45,400.51 100.45,-50.02 -199.45,-400.52"
           inkscape:connector-curvature="0" /><path
           id="path4094"
           style="fill:#7ab800;fill-opacity:1;fill-rule:nonzero;stroke:none"
           d="m 2458.28,3065.27 -107.79,31.3 196.16,675.57 107.79,-31.28 -196.16,-675.59"
           inkscape:connector-curvature="0" /><path
           id="path4096"
           style="fill:#7ab800;fill-opacity:1;fill-rule:nonzero;stroke:none"
           d="m 2259.13,3114.5 -111.63,11.55 45.98,444.91 111.67,-11.57 -46.02,-444.89"
           inkscape:connector-curvature="0" /><path
           id="path4098"
           style="fill:#7ab800;fill-opacity:1;fill-rule:nonzero;stroke:none"
           d="m 1942.48,3118.82 -38.29,499.72 111.89,8.55 38.3,-499.7 -111.9,-8.57"
           inkscape:connector-curvature="0" /><path
           id="path4100"
           style="fill:#7ab800;fill-opacity:1;fill-rule:nonzero;stroke:none"
           d="m 1742.08,3075.12 -86.88,331.83 108.56,28.42 86.82,-331.83 -108.5,-28.42"
           inkscape:connector-curvature="0" /><path
           id="path4102"
           style="fill:#7ab800;fill-opacity:1;fill-rule:nonzero;stroke:none"
           d="m 1552.71,2996.29 -97.03,208.48 101.69,47.34 97.05,-208.48 -101.71,-47.34"
           inkscape:connector-curvature="0" /><path
           id="path4104"
           style="fill:#7ab800;fill-opacity:1;fill-rule:nonzero;stroke:none"
           d="m 1380.38,2884.92 -52,73.66 91.66,64.73 51.97,-73.66 -91.63,-64.73"
           inkscape:connector-curvature="0" /><path
           id="path4106"
           style="fill:#7ab800;fill-opacity:1;fill-rule:nonzero;stroke:none"
           d="m 1230.75,2744.57 -263.148,258.36 78.598,80.09 263.16,-258.34 -78.61,-80.11"
           inkscape:connector-curvature="0" /><path
           id="path4108"
           style="fill:#7ab800;fill-opacity:1;fill-rule:nonzero;stroke:none"
           d="m 1108.57,2579.8 -407.179,279.21 63.062,92.8 407.177,-279.22 -63.06,-92.79"
           inkscape:connector-curvature="0" /><path
           id="path4110"
           style="fill:#7ab800;fill-opacity:1;fill-rule:nonzero;stroke:none"
           d="m 1017.79,2395.86 -256.411,113.64 45.473,102.58 256.428,-113.66 -45.49,-102.56"
           inkscape:connector-curvature="0" /><path
           id="path4112"
           style="fill:#7ab800;fill-opacity:1;fill-rule:nonzero;stroke:none"
           d="m 201.855,2382.63 759.504,-184.01 26.403,109.06 -759.473,183.99 -26.434,-109.04"
           inkscape:connector-curvature="0" /><path
           id="path4114"
           style="fill:#7ab800;fill-opacity:1;fill-rule:nonzero;stroke:none"
           d="m 940.992,1994.49 -566.629,33 6.547,112.04 566.606,-33.02 -6.524,-112.02"
           inkscape:connector-curvature="0" /><path
           id="path4116"
           style="fill:#7ab800;fill-opacity:1;fill-rule:nonzero;stroke:none"
           d="m 408.246,1723.06 -13.566,111.36 549.183,66.96 13.571,-111.34 -549.188,-66.98"
           inkscape:connector-curvature="0" /><path
           id="path4118"
           style="fill:#7ab800;fill-opacity:1;fill-rule:nonzero;stroke:none"
           d="m 887.23,1553.67 -33.25,107.15 122.864,38.11 33.226,-107.13 -122.84,-38.13"
           inkscape:connector-curvature="0" /><path
           id="path4120"
           style="fill:#7ab800;fill-opacity:1;fill-rule:nonzero;stroke:none"
           d="m 684.504,1190.97 -51.844,99.52 412.78,215.12 51.86,-99.51 -412.796,-215.13"
           inkscape:connector-curvature="0" /><path
           id="path4122"
           style="fill:#7ab800;fill-opacity:1;fill-rule:nonzero;stroke:none"
           d="m 819.805,931.332 -68.778,88.638 396.473,307.64 68.77,-88.63 -396.465,-307.648"
           inkscape:connector-curvature="0" /><path
           id="path4124"
           style="fill:#7ab800;fill-opacity:1;fill-rule:nonzero;stroke:none"
           d="m 1036.47,731.742 -83.501,74.918 326.721,364.06 83.51,-74.92 -326.73,-364.058"
           inkscape:connector-curvature="0" /><path
           id="path4126"
           style="fill:#7ab800;fill-opacity:1;fill-rule:nonzero;stroke:none"
           d="m 1414.95,788.852 -95.58,58.828 118.37,192.3 95.56,-58.82 -118.35,-192.308"
           inkscape:connector-curvature="0" /><path
           id="path4128"
           style="fill:#7ab800;fill-opacity:1;fill-rule:nonzero;stroke:none"
           d="m 1561.25,489.211 -104.52,40.828 159.9,409.512 104.51,-40.832 -159.89,-409.508"
           inkscape:connector-curvature="0" /><path
           id="path4130"
           style="fill:#7ab800;fill-opacity:1;fill-rule:nonzero;stroke:none"
           d="m 1843.42,455.148 -110.13,21.5 77.28,395.973 110.13,-21.48 -77.28,-395.993"
           inkscape:connector-curvature="0" /><path
           id="path4132"
           style="fill:#7ab800;fill-opacity:1;fill-rule:nonzero;stroke:none"
           d="m 2121.8,559.371 -112.2,1.5 3.73,280.578 112.19,-1.469 -3.72,-280.609"
           inkscape:connector-curvature="0" /><path
           id="path4134"
           style="fill:#7ab800;fill-opacity:1;fill-rule:nonzero;stroke:none"
           d="m 2308.19,311.859 -89.79,535.129 110.68,18.582 89.77,-535.121 -110.66,-18.59"
           inkscape:connector-curvature="0" /><path
           id="path4136"
           style="fill:#7ab800;fill-opacity:1;fill-rule:nonzero;stroke:none"
           d="m 2530.29,580.648 -111.07,308.403 105.53,38.008 111.07,-308.387 -105.53,-38.024"
           inkscape:connector-curvature="0" /><path
           id="path4138"
           style="fill:#7ab800;fill-opacity:1;fill-rule:nonzero;stroke:none"
           d="m 2609.27,966.25 406.96,-694.109 97.1,56.289 -406.99,694.07 -97.07,-56.25"
           inkscape:connector-curvature="0" /><path
           id="path4140"
           style="fill:#7ab800;fill-opacity:1;fill-rule:nonzero;stroke:none"
           d="m 2846.68,1010.07 -62.02,63.65 81.08,77.59 62.04,-63.65 -81.1,-77.59"
           inkscape:connector-curvature="0" /><path
           id="path4142"
           style="fill:#7ab800;fill-opacity:1;fill-rule:nonzero;stroke:none"
           d="m 3213.02,986.012 -279.76,229.228 71.14,86.8 279.76,-229.22 -71.14,-86.808"
           inkscape:connector-curvature="0" /><path
           id="path4144"
           style="fill:#7ab800;fill-opacity:1;fill-rule:nonzero;stroke:none"
           d="m 3342.57,1220.35 -285.72,158.68 54.45,98.1 285.75,-158.66 -54.48,-98.12"
           inkscape:connector-curvature="0" /><path
           id="path4146"
           style="fill:#7ab800;fill-opacity:1;fill-rule:nonzero;stroke:none"
           d="m 3287.17,1515.37 -138.04,46.89 36.09,106.26 137.99,-46.88 -36.04,-106.27"
           inkscape:connector-curvature="0" /><path
           id="path4148"
           style="fill:#7ab800;fill-opacity:1;fill-rule:nonzero;stroke:none"
           d="m 3639.68,1694.56 -432.43,64.43 16.53,110.98 432.44,-64.41 -16.54,-111"
           inkscape:connector-curvature="0" /><path
           id="path4150"
           style="fill:#7ab800;fill-opacity:1;fill-rule:nonzero;stroke:none"
           d="m 3229.31,1962.97 -3.56,112.15 277.48,8.77 3.58,-112.18 -277.5,-8.74"
           inkscape:connector-curvature="0" /><path
           id="path4152"
           style="fill:#7ab800;fill-opacity:1;fill-rule:nonzero;stroke:none"
           d="m 3214.61,2167.57 -23.53,109.72 343.11,73.57 23.55,-109.71 -343.13,-73.58"
           inkscape:connector-curvature="0" /><path
           id="path4154"
           style="fill:#7ab800;fill-opacity:1;fill-rule:nonzero;stroke:none"
           d="m 3163.59,2366.31 -42.73,103.73 221.36,91.18 42.7,-103.72 -221.33,-91.19"
           inkscape:connector-curvature="0" /><path
           id="path4156"
           style="fill:#7ab800;fill-opacity:1;fill-rule:nonzero;stroke:none"
           d="m 3077.9,2552.68 -60.55,94.48 585.92,375.74 60.59,-94.47 -585.96,-375.75"
           inkscape:connector-curvature="0" /><path
           id="path4158"
           style="fill:#7ab800;fill-opacity:1;fill-rule:nonzero;stroke:none"
           d="m 2960.33,2720.8 -76.46,82.09 88.52,82.45 76.42,-82.1 -88.48,-82.44"
           inkscape:connector-curvature="0" /><path
           id="path4160"
           style="fill:#ffffff;fill-opacity:1;fill-rule:nonzero;stroke:none"
           d="m 2413.74,1931.2 c 0,-42.95 -34.95,-77.89 -77.93,-77.89 -41.26,0 -75.05,32.27 -77.65,72.88 l -63.69,10.79 c -13.98,-52.25 -61.7,-90.85 -118.29,-90.85 -16.72,0 -32.66,3.38 -47.2,9.47 l -33.54,-58.15 c 17.82,-14.28 29.28,-36.19 29.28,-60.75 0,-42.96 -34.93,-77.91 -77.91,-77.91 -42.95,0 -77.9,34.95 -77.9,77.91 0,42.94 34.95,77.89 77.9,77.89 9.4,0 18.38,-1.76 26.72,-4.82 l 33.41,57.88 c -32.14,22.1 -53.27,59.11 -53.27,100.98 0,57.91 40.4,106.53 94.49,119.24 l -7.49,57.13 c -0.06,0 -0.12,-0.01 -0.19,-0.01 -42.95,0 -77.9,34.95 -77.9,77.89 0,42.96 34.95,77.9 77.9,77.9 42.95,0 77.89,-34.94 77.89,-77.9 0,-34.2 -22.19,-63.27 -52.91,-73.71 l 7.61,-58.11 c 1.04,0.03 2.06,0.08 3.11,0.08 67.53,0 122.46,-54.96 122.46,-122.51 0,-2.3 -0.08,-4.57 -0.2,-6.84 l 62.18,-10.53 c 8.89,33.25 39.19,57.84 75.19,57.84 42.98,0 77.93,-34.95 77.93,-77.9"
           inkscape:connector-curvature="0" /></g></g></g></svg>