<?xml version="1.0" encoding="UTF-8" standalone="no"?>
<!-- Created with Inkscape (http://www.inkscape.org/) -->

<svg
   xmlns:dc="http://purl.org/dc/elements/1.1/"
   xmlns:cc="http://creativecommons.org/ns#"
   xmlns:rdf="http://www.w3.org/1999/02/22-rdf-syntax-ns#"
   xmlns:svg="http://www.w3.org/2000/svg"
   xmlns="http://www.w3.org/2000/svg"
   xmlns:sodipodi="http://sodipodi.sourceforge.net/DTD/sodipodi-0.dtd"
   xmlns:inkscape="http://www.inkscape.org/namespaces/inkscape"
   id="svg3210"
   version="1.1"
   inkscape:version="0.48.5 r10040"
   width="1526.775"
   height="819.2875"
   xml:space="preserve"
   sodipodi:docname="OK_LOGO_WG_SCIENCE_RGB.eps"><metadata
     id="metadata3216"><rdf:RDF><cc:Work
         rdf:about=""><dc:format>image/svg+xml</dc:format><dc:type
           rdf:resource="http://purl.org/dc/dcmitype/StillImage" /><dc:title></dc:title></cc:Work></rdf:RDF></metadata><defs
     id="defs3214" /><sodipodi:namedview
     pagecolor="#ffffff"
     bordercolor="#666666"
     borderopacity="1"
     objecttolerance="10"
     gridtolerance="10"
     guidetolerance="10"
     inkscape:pageopacity="0"
     inkscape:pageshadow="2"
     inkscape:window-width="1366"
     inkscape:window-height="768"
     id="namedview3212"
     showgrid="false"
     inkscape:zoom="0.22072669"
     inkscape:cx="763.38751"
     inkscape:cy="409.64374"
     inkscape:window-x="0"
     inkscape:window-y="0"
     inkscape:window-maximized="0"
     inkscape:current-layer="g3218" /><g
     id="g3218"
     inkscape:groupmode="layer"
     inkscape:label="ink_ext_XXXXXX"
     transform="matrix(1.25,0,0,-1.25,0,819.2875)"><g
       id="g3385"><path
         d="m 765.568,397.91 c -11.873,0 -18.813,-8.035 -18.813,-21.23 0,-13.332 6.94,-21.23 18.813,-21.23 11.779,0 18.719,7.898 18.719,21.23 0,13.195 -6.94,21.23 -18.719,21.23 z m 0,-55.244 c -20.729,0 -34.609,14.792 -34.609,34.014 0,19.221 13.88,33.968 34.609,33.968 20.681,0 34.515,-14.838 34.515,-33.968 0,-19.222 -13.834,-34.014 -34.515,-34.014"
         style="fill:#7ab800;fill-opacity:1;fill-rule:nonzero;stroke:none"
         id="path3222"
         inkscape:connector-curvature="0" /><path
         d="m 842.92,377.273 8.036,0 c 8.036,0 11.323,4.018 11.323,10.912 0,6.072 -3.561,10.181 -11.323,10.181 l -8.036,0 0,-21.093 z m 0,-11.642 0,-22.235 -15.432,0 0,66.522 23.468,0 c 18.719,0 26.755,-9.451 26.755,-21.733 0,-13.286 -8.355,-22.554 -26.755,-22.554 l -8.036,0"
         style="fill:#7ab800;fill-opacity:1;fill-rule:nonzero;stroke:none"
         id="path3224"
         inkscape:connector-curvature="0" /><path
         d="m 948.669,409.918 0,-11.871 -27.304,0 0,-15.523 20.911,0 0,-11.415 -20.911,0 0,-15.843 27.304,0 0,-11.87 -42.827,0 0,66.522 42.827,0"
         style="fill:#7ab800;fill-opacity:1;fill-rule:nonzero;stroke:none"
         id="path3226"
         inkscape:connector-curvature="0" /><path
         d="m 994.333,407.544 31.597,-39.951 c -0.23,2.558 -0.37,4.977 -0.37,7.124 l 0,35.201 13.61,0 0,-66.522 -8.04,0 c -2.37,0 -3.88,0.593 -5.38,2.556 l -31.371,39.63 c 0.182,-2.328 0.321,-4.566 0.321,-6.528 l 0,-35.658 -13.606,0 0,66.522 8.126,0 c 2.648,0 3.425,-0.32 5.113,-2.374"
         style="fill:#7ab800;fill-opacity:1;fill-rule:nonzero;stroke:none"
         id="path3228"
         inkscape:connector-curvature="0" /><path
         d="m 770.418,287.23 c -0.547,-0.914 -1.095,-1.37 -2.054,-1.37 -2.056,0 -5.207,4.978 -13.565,4.978 -7.946,0 -12.147,-4.522 -12.147,-10.185 0,-14.614 31.375,-7.17 31.375,-28.771 0,-11.509 -7.992,-20.597 -21.922,-20.597 -8.448,0 -15.573,3.288 -20.506,8.54 l 2.558,4.201 c 0.503,0.686 1.187,1.188 2.055,1.188 2.558,0 6.075,-6.576 16.167,-6.576 8.358,0 13.335,4.84 13.335,11.965 0,15.847 -31.283,6.394 -31.283,29.594 0,9.271 7.262,17.993 20.232,17.993 7.307,0 13.38,-2.374 17.902,-6.758 l -2.147,-4.202"
         style="fill:#7ab800;fill-opacity:1;fill-rule:nonzero;stroke:none"
         id="path3230"
         inkscape:connector-curvature="0" /><path
         d="m 852.842,244.94 3.471,-3.791 c -5.344,-6.211 -12.787,-9.864 -23.566,-9.864 -18.816,0 -31.192,13.655 -31.192,33.43 0,19.775 13.381,33.475 32.882,33.475 9.637,0 16.304,-3.196 21.739,-8.311 l -2.878,-4.065 c -0.411,-0.593 -0.867,-1.05 -1.918,-1.05 -2.329,0 -5.298,5.754 -16.989,5.754 -13.975,0 -23.794,-9.91 -23.794,-25.803 0,-16.304 9.911,-25.803 22.698,-25.803 7.81,0 12.103,1.826 16.715,5.936 0.503,0.458 1.005,0.686 1.507,0.686 0.503,0 0.914,-0.183 1.325,-0.594"
         style="fill:#7ab800;fill-opacity:1;fill-rule:nonzero;stroke:none"
         id="path3232"
         inkscape:connector-curvature="0" /><path
         d="m 889.683,232.015 8.85898,0 0,65.4453 -8.85898,0 0,-65.4453 z"
         style="fill:#7ab800;fill-opacity:1;fill-rule:nonzero;stroke:none"
         id="path3234"
         inkscape:connector-curvature="0" /><path
         d="m 976.493,297.46 0,-7.216 -31.42,0 0,-21.738 25.437,0 0,-6.943 -25.437,0 0,-22.332 31.42,0 0,-7.216 -40.327,0 0,65.445 40.327,0"
         style="fill:#7ab800;fill-opacity:1;fill-rule:nonzero;stroke:none"
         id="path3236"
         inkscape:connector-curvature="0" /><path
         d="m 1016.94,295.953 37.91,-49.323 c -0.18,1.598 -0.23,3.059 -0.23,4.475 l 0,46.355 7.76,0 0,-65.445 -4.47,0 c -1.42,0 -2.24,0.458 -3.15,1.599 l -37.86,49.277 c 0.13,-1.506 0.18,-3.014 0.18,-4.247 l 0,-46.629 -7.76,0 0,65.445 4.56,0 c 1.6,0 2.1,-0.274 3.06,-1.507"
         style="fill:#7ab800;fill-opacity:1;fill-rule:nonzero;stroke:none"
         id="path3238"
         inkscape:connector-curvature="0" /><path
         d="m 1145.9,244.94 3.47,-3.791 c -5.34,-6.211 -12.79,-9.864 -23.56,-9.864 -18.82,0 -31.2,13.655 -31.2,33.43 0,19.775 13.38,33.475 32.88,33.475 9.64,0 16.31,-3.196 21.74,-8.311 l -2.87,-4.065 c -0.42,-0.593 -0.87,-1.05 -1.92,-1.05 -2.33,0 -5.3,5.754 -16.99,5.754 -13.98,0 -23.79,-9.91 -23.79,-25.803 0,-16.304 9.91,-25.803 22.69,-25.803 7.81,0 12.11,1.826 16.72,5.936 0.5,0.458 1,0.686 1.51,0.686 0.5,0 0.91,-0.183 1.32,-0.594"
         style="fill:#7ab800;fill-opacity:1;fill-rule:nonzero;stroke:none"
         id="path3240"
         inkscape:connector-curvature="0" /><path
         d="m 1221.42,297.46 0,-7.216 -31.42,0 0,-21.738 25.44,0 0,-6.943 -25.44,0 0,-22.332 31.42,0 0,-7.216 -40.32,0 0,65.445 40.32,0"
         style="fill:#7ab800;fill-opacity:1;fill-rule:nonzero;stroke:none"
         id="path3242"
         inkscape:connector-curvature="0" /><path
         d="m 484.782,316.286 -0.471,15.395 -46.673,-1.427 45.668,9.731 -3.211,15.065 -45.691,-9.737 43.216,17.735 -5.848,14.25 -43.175,-17.718 39.321,25.136 -8.296,12.978 -39.358,-25.159 34.234,31.78 -10.478,11.289 -34.231,-31.776 28.008,37.371 -12.326,9.236 -28.007,-37.37 20.887,41.768 -13.775,6.889 -20.889,-41.772 13.1,44.829 -14.786,4.32 -13.1,-44.831 4.89,46.445 -15.318,1.613 -5.063,-48.084 -3.774,48.202 -15.355,-1.203 3.643,-46.542 -11.887,45.143 -14.895,-3.922 11.894,-45.167 -19.763,42.318 -13.955,-6.517 19.759,-42.309 -26.992,38.103 -12.568,-8.902 27.005,-38.123 -33.373,32.689 -10.777,-11.004 33.353,-32.67 -38.649,26.196 -8.643,-12.75 38.665,-26.206 -42.721,18.884 -6.226,-14.088 42.719,-18.883 -45.405,10.953 -3.611,-14.972 45.392,-10.951 -46.613,2.676 -0.883,-15.377 46.635,-2.677 -46.363,-5.689 1.875,-15.287 46.373,5.69 -44.612,-13.874 4.574,-14.707 44.587,13.866 -41.396,-21.601 7.125,-13.656 41.397,21.601 -36.877,-28.641 9.447,-12.164 36.882,28.645 -31.178,-34.768 11.467,-10.283 31.171,34.76 -24.47,-39.766 13.117,-8.072 24.482,39.785 -16.987,-43.512 14.348,-5.602 16.987,43.513 -8.95,-45.845 15.117,-2.951 8.946,45.825 -0.622,-46.687 15.4,-0.206 0.623,46.721 7.724,-46.083 15.191,2.547 -7.717,46.046 15.809,-43.927 14.492,5.217 -15.815,43.942 23.403,-40.415 13.33,7.719 -23.396,40.403 30.231,-35.584 11.738,9.973 -30.239,35.594 36.101,-29.62 9.769,11.908 -36.125,29.64 40.836,-22.72 7.488,13.459 -40.798,22.699 44.192,-15.054 4.967,14.58 -44.215,15.062 46.195,-6.929 2.285,15.233 -46.21,6.93 46.698,1.428"
         style="fill:#ff0000;fill-opacity:1;fill-rule:nonzero;stroke:none"
         id="path3244"
         inkscape:connector-curvature="0" /><path
         d="M 489.277,485.593 472.443,498.168 576.527,637.533 593.363,624.957 489.277,485.593"
         style="fill:#7ab800;fill-opacity:1;fill-rule:nonzero;stroke:none"
         id="path3246"
         inkscape:connector-curvature="0" /><path
         d="m 457.601,507.33 -18.811,9.37 37.352,75.001 18.81,-9.367 -37.351,-75.004"
         style="fill:#7ab800;fill-opacity:1;fill-rule:nonzero;stroke:none"
         id="path3248"
         inkscape:connector-curvature="0" /><path
         d="m 422.552,523.06 -20.184,5.863 36.733,126.51 20.186,-5.857 -36.735,-126.516"
         style="fill:#7ab800;fill-opacity:1;fill-rule:nonzero;stroke:none"
         id="path3250"
         inkscape:connector-curvature="0" /><path
         d="m 385.259,532.28 -20.905,2.163 8.611,83.316 20.912,-2.165 -8.618,-83.314"
         style="fill:#7ab800;fill-opacity:1;fill-rule:nonzero;stroke:none"
         id="path3252"
         inkscape:connector-curvature="0" /><path
         d="m 325.961,533.09 -7.171,93.579 20.954,1.602 7.171,-93.578 -20.954,-1.603"
         style="fill:#7ab800;fill-opacity:1;fill-rule:nonzero;stroke:none"
         id="path3254"
         inkscape:connector-curvature="0" /><path
         d="m 288.432,524.904 -16.269,62.141 20.33,5.322 16.257,-62.141 -20.318,-5.322"
         style="fill:#7ab800;fill-opacity:1;fill-rule:nonzero;stroke:none"
         id="path3256"
         inkscape:connector-curvature="0" /><path
         d="m 252.969,510.143 -18.169,39.041 19.043,8.865 18.174,-39.04 -19.048,-8.866"
         style="fill:#7ab800;fill-opacity:1;fill-rule:nonzero;stroke:none"
         id="path3258"
         inkscape:connector-curvature="0" /><path
         d="m 220.699,489.287 -9.739,13.794 17.165,12.122 9.732,-13.795 -17.158,-12.121"
         style="fill:#7ab800;fill-opacity:1;fill-rule:nonzero;stroke:none"
         id="path3260"
         inkscape:connector-curvature="0" /><path
         d="m 192.678,463.005 -49.279,48.381 14.718,14.999 49.282,-48.379 -14.721,-15.001"
         style="fill:#7ab800;fill-opacity:1;fill-rule:nonzero;stroke:none"
         id="path3262"
         inkscape:connector-curvature="0" /><path
         d="m 169.797,432.147 -76.2505,52.288 11.8095,17.378 76.251,-52.288 -11.81,-17.378"
         style="fill:#7ab800;fill-opacity:1;fill-rule:nonzero;stroke:none"
         id="path3264"
         inkscape:connector-curvature="0" /><path
         d="m 152.797,397.702 -48.017,21.282 8.515,19.208 48.022,-21.284 -8.52,-19.206"
         style="fill:#7ab800;fill-opacity:1;fill-rule:nonzero;stroke:none"
         id="path3266"
         inkscape:connector-curvature="0" /><path
         d="m 0,395.226 142.23,-34.46 4.944,20.422 L 4.95,415.643 0,395.226"
         style="fill:#7ab800;fill-opacity:1;fill-rule:nonzero;stroke:none"
         id="path3268"
         inkscape:connector-curvature="0" /><path
         d="m 138.415,322.539 -106.1099,6.18 1.2258,20.982 106.1061,-6.184 -1.222,-20.978"
         style="fill:#7ab800;fill-opacity:1;fill-rule:nonzero;stroke:none"
         id="path3270"
         inkscape:connector-curvature="0" /><path
         d="m 38.65,271.71 -2.5402,20.853 102.8442,12.54 2.541,-20.851 L 38.65,271.71"
         style="fill:#7ab800;fill-opacity:1;fill-rule:nonzero;stroke:none"
         id="path3272"
         inkscape:connector-curvature="0" /><path
         d="m 128.348,239.988 -6.227,20.067 23.008,7.136 6.223,-20.062 -23.004,-7.141"
         style="fill:#7ab800;fill-opacity:1;fill-rule:nonzero;stroke:none"
         id="path3274"
         inkscape:connector-curvature="0" /><path
         d="m 90.3844,172.067 -9.709,18.636 77.2996,40.285 9.712,-18.635 -77.3026,-40.286"
         style="fill:#7ab800;fill-opacity:1;fill-rule:nonzero;stroke:none"
         id="path3276"
         inkscape:connector-curvature="0" /><path
         d="m 115.721,123.445 -12.88,16.6 74.247,57.609 12.878,-16.596 -74.245,-57.613"
         style="fill:#7ab800;fill-opacity:1;fill-rule:nonzero;stroke:none"
         id="path3278"
         inkscape:connector-curvature="0" /><path
         d="m 156.296,86.0672 -15.637,14.0318 61.184,68.176 15.638,-14.031 -61.185,-68.1768"
         style="fill:#7ab800;fill-opacity:1;fill-rule:nonzero;stroke:none"
         id="path3280"
         inkscape:connector-curvature="0" /><path
         d="m 227.171,96.7641 -17.897,11.0149 22.166,36.013 17.895,-11.016 -22.164,-36.0119"
         style="fill:#7ab800;fill-opacity:1;fill-rule:nonzero;stroke:none"
         id="path3282"
         inkscape:connector-curvature="0" /><path
         d="m 254.569,40.6512 -19.573,7.6457 29.945,76.6871 19.571,-7.645 -29.943,-76.6878"
         style="fill:#7ab800;fill-opacity:1;fill-rule:nonzero;stroke:none"
         id="path3284"
         inkscape:connector-curvature="0" /><path
         d="m 307.41,34.2719 -20.623,4.0273 14.472,74.1518 20.623,-4.023 -14.472,-74.1561"
         style="fill:#7ab800;fill-opacity:1;fill-rule:nonzero;stroke:none"
         id="path3286"
         inkscape:connector-curvature="0" /><path
         d="m 359.542,53.7891 -21.011,0.2808 0.697,52.5431 21.011,-0.275 -0.697,-52.5489"
         style="fill:#7ab800;fill-opacity:1;fill-rule:nonzero;stroke:none"
         id="path3288"
         inkscape:connector-curvature="0" /><path
         d="M 394.447,7.43789 377.632,107.65 l 20.727,3.48 16.81,-100.2101 -20.722,-3.48201"
         style="fill:#7ab800;fill-opacity:1;fill-rule:nonzero;stroke:none"
         id="path3290"
         inkscape:connector-curvature="0" /><path
         d="m 436.038,57.773 -20.8,57.754 19.763,7.118 20.8,-57.7509 -19.763,-7.1211"
         style="fill:#7ab800;fill-opacity:1;fill-rule:nonzero;stroke:none"
         id="path3292"
         inkscape:connector-curvature="0" /><path
         d="M 450.828,129.983 527.039,0 545.222,10.5422 469.006,140.518 450.828,129.983"
         style="fill:#7ab800;fill-opacity:1;fill-rule:nonzero;stroke:none"
         id="path3294"
         inkscape:connector-curvature="0" /><path
         d="m 495.287,138.189 -11.615,11.921 15.184,14.53 11.619,-11.919 -15.188,-14.532"
         style="fill:#7ab800;fill-opacity:1;fill-rule:nonzero;stroke:none"
         id="path3296"
         inkscape:connector-curvature="0" /><path
         d="m 563.89,133.684 -52.39,42.928 13.323,16.254 52.39,-42.926 -13.323,-16.256"
         style="fill:#7ab800;fill-opacity:1;fill-rule:nonzero;stroke:none"
         id="path3298"
         inkscape:connector-curvature="0" /><path
         d="m 588.152,177.568 -53.506,29.716 10.195,18.37 53.513,-29.712 -10.202,-18.374"
         style="fill:#7ab800;fill-opacity:1;fill-rule:nonzero;stroke:none"
         id="path3300"
         inkscape:connector-curvature="0" /><path
         d="m 577.776,232.816 -25.85,8.781 6.758,19.898 25.841,-8.777 -6.749,-19.902"
         style="fill:#7ab800;fill-opacity:1;fill-rule:nonzero;stroke:none"
         id="path3302"
         inkscape:connector-curvature="0" /><path
         d="m 643.79,266.373 -80.979,12.065 3.094,20.783 80.982,-12.063 -3.097,-20.785"
         style="fill:#7ab800;fill-opacity:1;fill-rule:nonzero;stroke:none"
         id="path3304"
         inkscape:connector-curvature="0" /><path
         d="m 566.942,316.637 -0.668,21.002 51.964,1.641 0.67,-21.008 -51.966,-1.635"
         style="fill:#7ab800;fill-opacity:1;fill-rule:nonzero;stroke:none"
         id="path3306"
         inkscape:connector-curvature="0" /><path
         d="m 564.188,354.952 -4.405,20.546 64.252,13.778 4.41,-20.547 -64.257,-13.777"
         style="fill:#7ab800;fill-opacity:1;fill-rule:nonzero;stroke:none"
         id="path3308"
         inkscape:connector-curvature="0" /><path
         d="m 554.634,392.169 -8.003,19.426 41.454,17.074 7.997,-19.423 -41.448,-17.077"
         style="fill:#7ab800;fill-opacity:1;fill-rule:nonzero;stroke:none"
         id="path3310"
         inkscape:connector-curvature="0" /><path
         d="m 538.587,427.069 -11.339,17.694 109.724,70.363 11.346,-17.692 -109.731,-70.365"
         style="fill:#7ab800;fill-opacity:1;fill-rule:nonzero;stroke:none"
         id="path3312"
         inkscape:connector-curvature="0" /><path
         d="m 516.57,458.554 -14.319,15.372 16.578,15.44 14.31,-15.375 -16.569,-15.437"
         style="fill:#7ab800;fill-opacity:1;fill-rule:nonzero;stroke:none"
         id="path3314"
         inkscape:connector-curvature="0" /><path
         d="m 399.618,325.274 c -6.741,0 -12.415,-4.605 -14.08,-10.831 l -11.645,1.973 c 0.023,0.424 0.037,0.85 0.037,1.279 0,12.651 -10.285,22.944 -22.932,22.944 -0.195,0 -0.388,-0.01 -0.581,-0.015 l -1.427,10.882 c 5.753,1.955 9.909,7.398 9.909,13.803 0,8.044 -6.543,14.588 -14.585,14.588 -8.045,0 -14.589,-6.544 -14.589,-14.588 0,-8.042 6.544,-14.586 14.589,-14.586 0.012,0 0.023,0.002 0.034,0.002 l 1.402,-10.699 c -10.128,-2.38 -17.693,-11.486 -17.693,-22.331 0,-7.839 3.956,-14.771 9.974,-18.909 l -6.255,-10.839 c -1.563,0.573 -3.244,0.902 -5.004,0.902 -8.044,0 -14.588,-6.544 -14.588,-14.586 0,-8.044 6.544,-14.588 14.588,-14.588 8.048,0 14.589,6.544 14.589,14.588 0,4.6 -2.145,8.703 -5.483,11.378 l 6.282,10.888 c 2.722,-1.14 5.707,-1.772 8.838,-1.772 10.598,0 19.534,7.228 22.152,17.012 l 11.927,-2.02 c 0.488,-7.605 6.815,-13.649 14.541,-13.649 8.05,0 14.594,6.544 14.594,14.586 0,8.044 -6.544,14.588 -14.594,14.588"
         style="fill:#ffffff;fill-opacity:1;fill-rule:nonzero;stroke:none"
         id="path3316"
         inkscape:connector-curvature="0" /></g></g></svg>