<?xml version="1.0" encoding="UTF-8" standalone="no"?>
<!-- Created with Inkscape (http://www.inkscape.org/) -->

<svg
   xmlns:dc="http://purl.org/dc/elements/1.1/"
   xmlns:cc="http://creativecommons.org/ns#"
   xmlns:rdf="http://www.w3.org/1999/02/22-rdf-syntax-ns#"
   xmlns:svg="http://www.w3.org/2000/svg"
   xmlns="http://www.w3.org/2000/svg"
   xmlns:sodipodi="http://sodipodi.sourceforge.net/DTD/sodipodi-0.dtd"
   xmlns:inkscape="http://www.inkscape.org/namespaces/inkscape"
   id="svg5245"
   version="1.1"
   inkscape:version="0.48.5 r10040"
   width="1526.775"
   height="819.2875"
   xml:space="preserve"
   sodipodi:docname="OK_LOGO_WG_SCIENCE_WHITE_CMYK.eps"><metadata
     id="metadata5251"><rdf:RDF><cc:Work
         rdf:about=""><dc:format>image/svg+xml</dc:format><dc:type
           rdf:resource="http://purl.org/dc/dcmitype/StillImage" /><dc:title></dc:title></cc:Work></rdf:RDF></metadata><defs
     id="defs5249" /><sodipodi:namedview
     pagecolor="#ffffff"
     bordercolor="#666666"
     borderopacity="1"
     objecttolerance="10"
     gridtolerance="10"
     guidetolerance="10"
     inkscape:pageopacity="0"
     inkscape:pageshadow="2"
     inkscape:window-width="679"
     inkscape:window-height="729"
     id="namedview5247"
     showgrid="false"
     inkscape:zoom="0.22072669"
     inkscape:cx="763.38751"
     inkscape:cy="409.64374"
     inkscape:window-x="683"
     inkscape:window-y="18"
     inkscape:window-maximized="0"
     inkscape:current-layer="g5253" /><g
     id="g5253"
     inkscape:groupmode="layer"
     inkscape:label="ink_ext_XXXXXX"
     transform="matrix(1.25,0,0,-1.25,0,819.2875)"><g
       id="g5255"
       transform="scale(0.1,0.1)"><path
         d="m 7655.68,3979.1 c -118.73,0 -188.13,-80.35 -188.13,-212.3 0,-133.32 69.4,-212.3 188.13,-212.3 117.79,0 187.19,78.98 187.19,212.3 0,131.95 -69.4,212.3 -187.19,212.3 z m 0,-552.44 c -207.29,0 -346.09,147.92 -346.09,340.14 0,192.21 138.8,339.68 346.09,339.68 206.81,0 345.15,-148.38 345.15,-339.68 0,-192.22 -138.34,-340.14 -345.15,-340.14"
         style="fill:#ffffff;fill-opacity:1;fill-rule:nonzero;stroke:none"
         id="path5257" /><path
         d="m 8429.2,3772.73 80.36,0 c 80.36,0 113.23,40.18 113.23,109.12 0,60.72 -35.61,101.81 -113.23,101.81 l -80.36,0 0,-210.93 z m 0,-116.42 0,-222.35 -154.32,0 0,665.22 234.68,0 c 187.19,0 267.55,-94.51 267.55,-217.33 0,-132.86 -83.55,-225.54 -267.55,-225.54 l -80.36,0"
         style="fill:#ffffff;fill-opacity:1;fill-rule:nonzero;stroke:none"
         id="path5259" /><path
         d="m 9486.69,4099.18 0,-118.71 -273.04,0 0,-155.23 209.11,0 0,-114.15 -209.11,0 0,-158.43 273.04,0 0,-118.7 -428.27,0 0,665.22 428.27,0"
         style="fill:#ffffff;fill-opacity:1;fill-rule:nonzero;stroke:none"
         id="path5261" /><path
         d="m 9943.33,4075.44 315.97,-399.51 c -2.3,25.58 -3.7,49.77 -3.7,71.24 l 0,352.01 136.1,0 0,-665.22 -80.4,0 c -23.7,0 -38.8,5.93 -53.8,25.56 l -313.71,396.3 c 1.82,-23.28 3.21,-45.66 3.21,-65.28 l 0,-356.58 -136.06,0 0,665.22 81.26,0 c 26.48,0 34.25,-3.2 51.13,-23.74"
         style="fill:#ffffff;fill-opacity:1;fill-rule:nonzero;stroke:none"
         id="path5263" /><path
         d="m 7704.18,2872.3 c -5.47,-9.14 -10.95,-13.7 -20.54,-13.7 -20.56,0 -52.07,49.78 -135.65,49.78 -79.46,0 -121.47,-45.22 -121.47,-101.85 0,-146.14 313.75,-71.7 313.75,-287.71 0,-115.09 -79.92,-205.97 -219.22,-205.97 -84.48,0 -155.73,32.88 -205.06,85.4 l 25.58,42.01 c 5.03,6.86 11.87,11.88 20.55,11.88 25.58,0 60.75,-65.76 161.67,-65.76 83.58,0 133.35,48.4 133.35,119.65 0,158.47 -312.83,63.94 -312.83,295.94 0,92.71 72.62,179.93 202.32,179.93 73.07,0 133.8,-23.74 179.02,-67.58 l -21.47,-42.02"
         style="fill:#ffffff;fill-opacity:1;fill-rule:nonzero;stroke:none"
         id="path5265" /><path
         d="m 8528.42,2449.4 34.71,-37.91 c -53.44,-62.11 -127.87,-98.64 -235.66,-98.64 -188.16,0 -311.92,136.55 -311.92,334.3 0,197.75 133.81,334.75 328.82,334.75 96.37,0 163.04,-31.96 217.39,-83.11 l -28.78,-40.65 c -4.11,-5.93 -8.67,-10.5 -19.18,-10.5 -23.29,0 -52.98,57.54 -169.89,57.54 -139.75,0 -237.94,-99.1 -237.94,-258.03 0,-163.04 99.11,-258.03 226.98,-258.03 78.1,0 121.03,18.26 167.15,59.36 5.03,4.58 10.05,6.86 15.07,6.86 5.03,0 9.14,-1.83 13.25,-5.94"
         style="fill:#ffffff;fill-opacity:1;fill-rule:nonzero;stroke:none"
         id="path5267" /><path
         d="m 8896.83,2320.15 88.5898,0 0,654.453 -88.5898,0 0,-654.453 z"
         style="fill:#ffffff;fill-opacity:1;fill-rule:nonzero;stroke:none"
         id="path5269" /><path
         d="m 9764.93,2974.6 0,-72.16 -314.2,0 0,-217.38 254.37,0 0,-69.43 -254.37,0 0,-223.32 314.2,0 0,-72.16 -403.27,0 0,654.45 403.27,0"
         style="fill:#ffffff;fill-opacity:1;fill-rule:nonzero;stroke:none"
         id="path5271" /><path
         d="m 10169.4,2959.53 379.1,-493.23 c -1.8,15.98 -2.3,30.59 -2.3,44.75 l 0,463.55 77.6,0 0,-654.45 -44.7,0 c -14.2,0 -22.4,4.58 -31.5,15.99 l -378.6,492.77 c 1.3,-15.06 1.8,-30.14 1.8,-42.47 l 0,-466.29 -77.6,0 0,654.45 45.6,0 c 16,0 21,-2.74 30.6,-15.07"
         style="fill:#ffffff;fill-opacity:1;fill-rule:nonzero;stroke:none"
         id="path5273" /><path
         d="m 11459,2449.4 34.7,-37.91 c -53.4,-62.11 -127.9,-98.64 -235.6,-98.64 -188.2,0 -312,136.55 -312,334.3 0,197.75 133.8,334.75 328.8,334.75 96.4,0 163.1,-31.96 217.4,-83.11 l -28.7,-40.65 c -4.2,-5.93 -8.7,-10.5 -19.2,-10.5 -23.3,0 -53,57.54 -169.9,57.54 -139.8,0 -237.9,-99.1 -237.9,-258.03 0,-163.04 99.1,-258.03 226.9,-258.03 78.1,0 121.1,18.26 167.2,59.36 5,4.58 10,6.86 15.1,6.86 5,0 9.1,-1.83 13.2,-5.94"
         style="fill:#ffffff;fill-opacity:1;fill-rule:nonzero;stroke:none"
         id="path5275" /><path
         d="m 12214.2,2974.6 0,-72.16 -314.2,0 0,-217.38 254.4,0 0,-69.43 -254.4,0 0,-223.32 314.2,0 0,-72.16 -403.2,0 0,654.45 403.2,0"
         style="fill:#ffffff;fill-opacity:1;fill-rule:nonzero;stroke:none"
         id="path5277" /><path
         d="M 4892.77,4855.93 4724.43,4981.68 5765.27,6375.33 5933.63,6249.57 4892.77,4855.93"
         style="fill:#ffffff;fill-opacity:1;fill-rule:nonzero;stroke:none"
         id="path5279" /><path
         d="m 4576.01,5073.3 -188.11,93.7 373.52,750.01 188.1,-93.67 -373.51,-750.04"
         style="fill:#ffffff;fill-opacity:1;fill-rule:nonzero;stroke:none"
         id="path5281" /><path
         d="m 4225.52,5230.6 -201.84,58.63 367.33,1265.1 201.86,-58.57 -367.35,-1265.16"
         style="fill:#ffffff;fill-opacity:1;fill-rule:nonzero;stroke:none"
         id="path5283" /><path
         d="m 3852.59,5322.8 -209.05,21.63 86.11,833.16 209.12,-21.65 -86.18,-833.14"
         style="fill:#ffffff;fill-opacity:1;fill-rule:nonzero;stroke:none"
         id="path5285" /><path
         d="m 3259.61,5330.9 -71.71,935.79 209.54,16.02 71.71,-935.78 -209.54,-16.03"
         style="fill:#ffffff;fill-opacity:1;fill-rule:nonzero;stroke:none"
         id="path5287" /><path
         d="m 2884.32,5249.04 -162.69,621.41 203.3,53.22 162.57,-621.41 -203.18,-53.22"
         style="fill:#ffffff;fill-opacity:1;fill-rule:nonzero;stroke:none"
         id="path5289" /><path
         d="m 2529.69,5101.43 -181.69,390.41 190.43,88.65 181.74,-390.4 -190.48,-88.66"
         style="fill:#ffffff;fill-opacity:1;fill-rule:nonzero;stroke:none"
         id="path5291" /><path
         d="m 2206.99,4892.87 -97.39,137.94 171.65,121.22 97.32,-137.95 -171.58,-121.21"
         style="fill:#ffffff;fill-opacity:1;fill-rule:nonzero;stroke:none"
         id="path5293" /><path
         d="m 1926.78,4630.05 -492.79,483.81 147.18,149.99 492.82,-483.79 -147.21,-150.01"
         style="fill:#ffffff;fill-opacity:1;fill-rule:nonzero;stroke:none"
         id="path5295" /><path
         d="m 1697.97,4321.47 -762.505,522.88 118.095,173.78 762.51,-522.88 -118.1,-173.78"
         style="fill:#ffffff;fill-opacity:1;fill-rule:nonzero;stroke:none"
         id="path5297" /><path
         d="m 1527.97,3977.02 -480.17,212.82 85.15,192.08 480.22,-212.84 -85.2,-192.06"
         style="fill:#ffffff;fill-opacity:1;fill-rule:nonzero;stroke:none"
         id="path5299" /><path
         d="m 0,3952.26 1422.3,-344.6 49.44,204.22 L 49.5,4156.43 0,3952.26"
         style="fill:#ffffff;fill-opacity:1;fill-rule:nonzero;stroke:none"
         id="path5301" /><path
         d="m 1384.15,3225.39 -1061.099,61.8 12.258,209.82 1061.061,-61.84 -12.22,-209.78"
         style="fill:#ffffff;fill-opacity:1;fill-rule:nonzero;stroke:none"
         id="path5303" /><path
         d="m 386.5,2717.1 -25.402,208.53 1028.442,125.4 25.41,-208.51 L 386.5,2717.1"
         style="fill:#ffffff;fill-opacity:1;fill-rule:nonzero;stroke:none"
         id="path5305" /><path
         d="m 1283.48,2399.88 -62.27,200.67 230.08,71.36 62.23,-200.62 -230.04,-71.41"
         style="fill:#ffffff;fill-opacity:1;fill-rule:nonzero;stroke:none"
         id="path5307" /><path
         d="m 903.844,1720.67 -97.09,186.36 772.996,402.85 97.12,-186.35 -773.026,-402.86"
         style="fill:#ffffff;fill-opacity:1;fill-rule:nonzero;stroke:none"
         id="path5309" /><path
         d="m 1157.21,1234.45 -128.8,166 742.47,576.09 128.78,-165.96 -742.45,-576.13"
         style="fill:#ffffff;fill-opacity:1;fill-rule:nonzero;stroke:none"
         id="path5311" /><path
         d="m 1562.96,860.672 -156.37,140.318 611.84,681.76 156.38,-140.31 -611.85,-681.768"
         style="fill:#ffffff;fill-opacity:1;fill-rule:nonzero;stroke:none"
         id="path5313" /><path
         d="m 2271.71,967.641 -178.97,110.149 221.66,360.13 178.95,-110.16 -221.64,-360.119"
         style="fill:#ffffff;fill-opacity:1;fill-rule:nonzero;stroke:none"
         id="path5315" /><path
         d="m 2545.69,406.512 -195.73,76.457 299.45,766.871 195.71,-76.45 -299.43,-766.878"
         style="fill:#ffffff;fill-opacity:1;fill-rule:nonzero;stroke:none"
         id="path5317" /><path
         d="m 3074.1,342.719 -206.23,40.273 144.72,741.518 206.23,-40.23 -144.72,-741.561"
         style="fill:#ffffff;fill-opacity:1;fill-rule:nonzero;stroke:none"
         id="path5319" /><path
         d="m 3595.42,537.891 -210.11,2.808 6.97,525.431 210.11,-2.75 -6.97,-525.489"
         style="fill:#ffffff;fill-opacity:1;fill-rule:nonzero;stroke:none"
         id="path5321" /><path
         d="M 3944.47,74.3789 3776.32,1076.5 l 207.27,34.8 168.1,-1002.101 -207.22,-34.8201"
         style="fill:#ffffff;fill-opacity:1;fill-rule:nonzero;stroke:none"
         id="path5323" /><path
         d="m 4360.38,577.73 -208,577.54 197.63,71.18 208,-577.509 -197.63,-71.211"
         style="fill:#ffffff;fill-opacity:1;fill-rule:nonzero;stroke:none"
         id="path5325" /><path
         d="M 4508.28,1299.83 5270.39,0 5452.22,105.422 4690.06,1405.18 4508.28,1299.83"
         style="fill:#ffffff;fill-opacity:1;fill-rule:nonzero;stroke:none"
         id="path5327" /><path
         d="m 4952.87,1381.89 -116.15,119.21 151.84,145.3 116.19,-119.19 -151.88,-145.32"
         style="fill:#ffffff;fill-opacity:1;fill-rule:nonzero;stroke:none"
         id="path5329" /><path
         d="m 5638.9,1336.84 -523.9,429.28 133.23,162.54 523.9,-429.26 -133.23,-162.56"
         style="fill:#ffffff;fill-opacity:1;fill-rule:nonzero;stroke:none"
         id="path5331" /><path
         d="m 5881.52,1775.68 -535.06,297.16 101.95,183.7 535.13,-297.12 -102.02,-183.74"
         style="fill:#ffffff;fill-opacity:1;fill-rule:nonzero;stroke:none"
         id="path5333" /><path
         d="m 5777.76,2328.16 -258.5,87.81 67.58,198.98 258.41,-87.77 -67.49,-199.02"
         style="fill:#ffffff;fill-opacity:1;fill-rule:nonzero;stroke:none"
         id="path5335" /><path
         d="m 6437.9,2663.73 -809.79,120.65 30.94,207.83 809.82,-120.63 -30.97,-207.85"
         style="fill:#ffffff;fill-opacity:1;fill-rule:nonzero;stroke:none"
         id="path5337" /><path
         d="m 5669.42,3166.37 -6.68,210.02 519.64,16.41 6.7,-210.08 -519.66,-16.35"
         style="fill:#ffffff;fill-opacity:1;fill-rule:nonzero;stroke:none"
         id="path5339" /><path
         d="m 5641.88,3549.52 -44.05,205.46 642.52,137.78 44.1,-205.47 -642.57,-137.77"
         style="fill:#ffffff;fill-opacity:1;fill-rule:nonzero;stroke:none"
         id="path5341" /><path
         d="m 5546.34,3921.69 -80.03,194.26 414.54,170.74 79.97,-194.23 -414.48,-170.77"
         style="fill:#ffffff;fill-opacity:1;fill-rule:nonzero;stroke:none"
         id="path5343" /><path
         d="m 5385.87,4270.69 -113.39,176.94 1097.24,703.63 113.46,-176.92 -1097.31,-703.65"
         style="fill:#ffffff;fill-opacity:1;fill-rule:nonzero;stroke:none"
         id="path5345" /><path
         d="m 5165.7,4585.54 -143.19,153.72 165.78,154.4 143.1,-153.75 -165.69,-154.37"
         style="fill:#ffffff;fill-opacity:1;fill-rule:nonzero;stroke:none"
         id="path5347" /><path
         d="m 3996.18,2961 c -77.26,0 -140.53,60.44 -145.41,136.49 l -119.27,20.2 c -26.18,-97.84 -115.54,-170.12 -221.52,-170.12 -31.31,0 -61.16,6.32 -88.38,17.72 l -62.82,-108.88 c 33.38,-26.75 54.83,-67.78 54.83,-113.78 0,-80.44 -65.41,-145.88 -145.89,-145.88 -80.44,0 -145.88,65.44 -145.88,145.88 0,80.42 65.44,145.86 145.88,145.86 17.6,0 34.41,-3.29 50.04,-9.02 l 62.55,108.39 c -60.18,41.38 -99.74,110.7 -99.74,189.09 0,108.45 75.65,199.51 176.93,223.31 l -14.02,106.99 c -0.11,0 -0.22,-0.02 -0.34,-0.02 -80.45,0 -145.89,65.44 -145.89,145.86 0,80.44 65.44,145.88 145.89,145.88 80.42,0 145.85,-65.44 145.85,-145.88 0,-64.05 -41.56,-118.48 -99.09,-138.03 l 14.27,-108.82 c 1.93,0.05 3.86,0.15 5.81,0.15 126.47,0 229.32,-102.93 229.32,-229.44 0,-4.29 -0.14,-8.55 -0.37,-12.79 l 116.45,-19.73 c 16.65,62.26 73.39,108.31 140.8,108.31 80.5,0 145.94,-65.44 145.94,-145.88 0,-80.42 -65.44,-145.86 -145.94,-145.86 z m 851.64,201.86 -4.71,153.95 -466.73,-14.27 456.68,97.31 -32.11,150.65 -456.91,-97.37 432.16,177.35 -58.48,142.5 -431.75,-177.18 393.21,251.36 -82.96,129.78 -393.58,-251.59 342.34,317.8 -104.78,112.89 -342.31,-317.76 280.08,373.71 -123.26,92.36 -280.07,-373.7 208.87,417.68 -137.75,68.89 -208.89,-417.72 131,448.29 -147.86,43.2 -131,-448.31 48.9,464.45 -153.18,16.13 -50.63,-480.84 -37.74,482.02 -153.55,-12.03 36.43,-465.42 -118.87,451.43 -148.95,-39.22 118.94,-451.67 -197.63,423.18 -139.55,-65.17 197.59,-423.09 -269.92,381.03 -125.68,-89.02 270.05,-381.23 -333.73,326.89 -107.77,-110.04 333.53,-326.7 -386.49,261.96 -86.43,-127.5 386.65,-262.06 -427.21,188.84 -62.26,-140.88 427.19,-188.83 -454.05,109.53 -36.11,-149.72 453.92,-109.51 -466.13,26.76 -8.83,-153.77 466.35,-26.77 -463.63,-56.89 18.75,-152.87 463.73,56.9 -446.12,-138.74 45.74,-147.07 445.87,138.66 -413.96,-216.01 71.25,-136.56 413.97,216.01 -368.77,-286.41 94.47,-121.64 368.82,286.45 -311.78,-347.68 114.67,-102.83 311.71,347.6 -244.7,-397.66 131.17,-80.72 244.82,397.85 -169.87,-435.12 143.48,-56.02 169.87,435.13 -89.5,-458.45 151.17,-29.51 89.46,458.25 -6.22,-466.87 154,-2.06 6.23,467.21 77.24,-460.83 151.91,25.47 -77.17,460.46 158.09,-439.27 144.92,52.17 -158.15,439.42 234.03,-404.15 133.3,77.19 -233.96,404.03 302.31,-355.84 117.38,99.73 -302.39,355.94 361.01,-296.2 97.69,119.08 -361.25,296.4 408.36,-227.2 74.88,134.59 -407.98,226.99 441.92,-150.54 49.67,145.8 -442.15,150.62 461.95,-69.29 22.85,152.33 -462.1,69.3 466.98,14.28"
         style="fill:#ffffff;fill-opacity:1;fill-rule:nonzero;stroke:none"
         id="path5349" /></g></g></svg>