<?xml version="1.0" encoding="UTF-8" standalone="no"?>
<!-- Created with Inkscape (http://www.inkscape.org/) -->

<svg
   xmlns:dc="http://purl.org/dc/elements/1.1/"
   xmlns:cc="http://creativecommons.org/ns#"
   xmlns:rdf="http://www.w3.org/1999/02/22-rdf-syntax-ns#"
   xmlns:svg="http://www.w3.org/2000/svg"
   xmlns="http://www.w3.org/2000/svg"
   xmlns:sodipodi="http://sodipodi.sourceforge.net/DTD/sodipodi-0.dtd"
   xmlns:inkscape="http://www.inkscape.org/namespaces/inkscape"
   id="svg3004"
   version="1.1"
   inkscape:version="0.48.4 r9939"
   width="713.32625"
   height="176.51625"
   xml:space="preserve"
   sodipodi:docname="open-science.pdf"><metadata
     id="metadata3010"><rdf:RDF><cc:Work
         rdf:about=""><dc:format>image/svg+xml</dc:format><dc:type
           rdf:resource="http://purl.org/dc/dcmitype/StillImage" /><dc:title></dc:title></cc:Work></rdf:RDF></metadata><defs
     id="defs3008"><clipPath
       clipPathUnits="userSpaceOnUse"
       id="clipPath3020"><path
         d="m 12.4961,128.717 545.6689,0 0,-116.2209 -545.6689,0 0,116.2209 z"
         id="path3022" /></clipPath><clipPath
       clipPathUnits="userSpaceOnUse"
       id="clipPath3032"><path
         d="m 12.4961,128.717 545.6689,0 0,-116.2209 -545.6689,0 0,116.2209 z"
         id="path3034" /></clipPath><clipPath
       clipPathUnits="userSpaceOnUse"
       id="clipPath3046"><path
         d="m 12.4961,128.717 545.6689,0 0,-116.2209 -545.6689,0 0,116.2209 z"
         id="path3048" /></clipPath><clipPath
       clipPathUnits="userSpaceOnUse"
       id="clipPath3058"><path
         d="m 0,0 570.661,0 0,141.213 L 0,141.213 0,0 z"
         id="path3060" /></clipPath></defs><sodipodi:namedview
     pagecolor="#ffffff"
     bordercolor="#666666"
     borderopacity="1"
     objecttolerance="10"
     gridtolerance="10"
     guidetolerance="10"
     inkscape:pageopacity="0"
     inkscape:pageshadow="2"
     inkscape:window-width="1680"
     inkscape:window-height="991"
     id="namedview3006"
     showgrid="false"
     inkscape:zoom="0.51589299"
     inkscape:cx="356.66312"
     inkscape:cy="88.258125"
     inkscape:window-x="0"
     inkscape:window-y="27"
     inkscape:window-maximized="1"
     inkscape:current-layer="g3012" /><g
     id="g3012"
     inkscape:groupmode="layer"
     inkscape:label="open-science"
     transform="matrix(1.25,0,0,-1.25,0,176.51625)"><g
       id="g3014"><g
         id="g3016"><g
           id="g3018"
           clip-path="url(#clipPath3020)"><path
             d="m 12.496,12.496 545.669,0 0,116.22 -545.669,0 0,-116.22 z"
             style="fill:#5a5758;fill-opacity:1;fill-rule:nonzero;stroke:none"
             id="path3024" /></g></g></g><g
       id="g3026"><g
         id="g3028"><g
           id="g3030"
           clip-path="url(#clipPath3032)"><path
             d="m 28.087,28.087 514.488,0 0,85.039 -514.488,0 0,-85.039 z"
             style="fill:#ffffff;fill-opacity:1;fill-rule:nonzero;stroke:none"
             id="path3036" /></g></g></g><path
       d="m 225.803,35.27 309.685,0 0,70.866 -309.685,0 0,-70.866 z"
       style="fill:#ef3138;fill-opacity:1;fill-rule:nonzero;stroke:none"
       id="path3038" /><g
       id="g3040"><g
         id="g3042"><g
           id="g3044"
           clip-path="url(#clipPath3046)"><path
             d="m 66.092,85.464 -13.333,0 0,-6.667 13.333,0 0,6.667 z m -13.333,-6.666 -6.667,0 0,-20 6.667,0 0,20 z m 13.333,-20 -13.333,0 0,-6.667 13.333,0 0,6.667 z m 6.667,20 -6.667,0 0,-20 6.667,0 0,20 z m 19.946,-26.667 0,13.333 13.333,0 0,6.667 -13.333,0 0,6.667 13.333,0 0,6.666 -20,0 0,-33.333 6.667,0 z m 13.333,20 6.667,0 0,6.667 -6.667,0 0,-6.667 z m 39.947,13.333 -20,0 0,-33.333 20,0 0,6.667 -13.334,0 0,6.666 13.334,0 0,6.667 -13.334,0 0,6.667 13.334,0 0,6.666 z m 19.946,0 -6.667,0 0,-33.333 6.667,0 0,33.333 z m 26.667,0 -6.667,0 0,-33.333 6.667,0 0,33.333 z m -13.334,-26.666 6.667,0 0,6.667 -6.667,0 0,-6.667 z m -6.666,6.666 6.667,0 0,6.667 -6.667,0 0,-6.667 z m -6.667,6.667 6.667,0 0,6.667 -6.667,0 0,-6.667 z"
             style="fill:#231f20;fill-opacity:1;fill-rule:nonzero;stroke:none"
             id="path3050" /></g></g></g><path
       d="m 263.808,58.798 -20,0 0,-6.667 20,0 0,6.667 z m 6.667,26.666 -20,0 0,-6.667 20,0 0,6.667 z m -20,-13.333 13.333,0 0,-6.667 -13.333,0 0,6.667 z m 13.333,-13.333 6.667,0 0,6.667 -6.667,0 0,-6.667 z m -20,13.333 6.667,0 0,6.667 -6.667,0 0,-6.667 z m 66.613,6.667 -6.667,0 0,-6.667 6.667,0 0,6.667 z m -6.666,6.666 -13.333,0 0,-6.667 13.333,0 0,6.667 z m 6.666,-20 -6.667,0 0,-6.667 6.667,0 0,6.667 z m -20,13.334 -6.667,0 0,-20 6.667,0 0,20 z m 13.334,-20 -13.333,0 0,-6.667 13.333,0 0,6.667 z m 26.613,26.666 -6.667,0 0,-33.333 6.667,0 0,33.333 z m 33.279,0 -20,0 0,-33.333 20,0 0,6.667 -13.333,0 0,6.666 13.333,0 0,6.667 -13.333,0 0,6.667 13.333,0 0,6.666 z m 19.947,0 -6.667,0 0,-33.333 6.667,0 0,33.333 z m 26.666,0 -6.667,0 0,-33.333 6.667,0 0,33.333 z m -13.333,-26.666 6.667,0 0,6.667 -6.667,0 0,-6.667 z m -6.667,6.666 6.667,0 0,6.667 -6.667,0 0,-6.667 z m -6.666,6.667 6.667,0 0,6.667 -6.667,0 0,-6.667 z m 66.613,6.667 -6.667,0 0,-6.667 6.667,0 0,6.667 z m -6.667,6.666 -13.333,0 0,-6.667 13.333,0 0,6.667 z m 6.667,-20 -6.667,0 0,-6.667 6.667,0 0,6.667 z m -20,13.334 -6.667,0 0,-20 6.667,0 0,20 z m 13.333,-20 -13.333,0 0,-6.667 13.333,0 0,6.667 z m 39.946,26.666 -20,0 0,-33.333 20,0 0,6.667 -13.333,0 0,6.666 13.333,0 0,6.667 -13.333,0 0,6.667 13.333,0 0,6.666 z"
       style="fill:#ffffff;fill-opacity:1;fill-rule:nonzero;stroke:none"
       id="path3052" /><g
       id="g3054"><g
         id="g3056"
         clip-path="url(#clipPath3058)"><g
           id="g3062"
           transform="translate(15,120.2126)"><path
             d="m 0,0 -15,0 m 555.661,0 15,0 M 0,-99.213 l -15,0 m 555.661,0 15,0 M 6,6 6,21 m 0,-126.213 0,-15 M 534.661,6 l 0,15 m 0,-126.213 0,-15"
             style="fill:none;stroke:#ffffff;stroke-opacity:1;stroke-width:1.25;stroke-linecap:butt;stroke-linejoin:miter;stroke-miterlimit:10;stroke-dasharray:none"
             id="path3064" /></g><g
           id="g3066"
           transform="translate(15,120.2126)"><path
             d="m 0,0 -15,0 m 555.661,0 15,0 M 0,-99.213 l -15,0 m 555.661,0 15,0 M 6,6 6,21 m 0,-126.213 0,-15 M 534.661,6 l 0,15 m 0,-126.213 0,-15"
             style="fill:none;stroke:#000000;stroke-opacity:1;stroke-width:0.25;stroke-linecap:butt;stroke-linejoin:miter;stroke-miterlimit:10;stroke-dasharray:none"
             id="path3068" /></g></g></g></g></svg>